<?xml version="1.0" encoding="UTF-8" standalone="no"?>
<!DOCTYPE svg PUBLIC "-//W3C//DTD SVG 1.1//EN" "http://www.w3.org/Graphics/SVG/1.1/DTD/svg11.dtd">
<svg width="100%" height="100%" viewBox="0 0 221 66" version="1.1" xmlns="http://www.w3.org/2000/svg" xmlns:xlink="http://www.w3.org/1999/xlink" xml:space="preserve" xmlns:serif="http://www.serif.com/" style="fill-rule:evenodd;clip-rule:evenodd;stroke-linejoin:round;stroke-miterlimit:2;">
    <g>
        <g transform="matrix(2.73607,0,0,2.73607,-751.096,-1958.91)">
            <path d="M295.956,721.779L296.664,721.779C297.232,721.779 297.516,722.027 297.516,722.523L297.516,723.603C297.516,724.099 297.232,724.347 296.664,724.347L295.956,724.347L295.956,721.779ZM297.564,728.691L299.244,728.691L298.044,725.391C298.708,725.047 299.04,724.455 299.04,723.615L299.04,722.523C299.04,721.891 298.838,721.387 298.434,721.011C298.03,720.635 297.44,720.447 296.664,720.447L294.432,720.447L294.432,728.691L295.956,728.691L295.956,725.679L296.58,725.679L297.564,728.691Z" style="fill:rgb(15,178,242);fill-rule:nonzero;"/>
            <path d="M301.896,725.379L301.944,725.163C302.224,723.747 302.4,722.671 302.472,721.935C302.52,722.535 302.696,723.611 303,725.163L303.048,725.379L301.896,725.379ZM303.72,728.691L305.232,728.691L303.468,720.447L301.476,720.447L299.712,728.691L301.224,728.691L301.632,726.675L303.312,726.675L303.72,728.691Z" style="fill:rgb(15,178,242);fill-rule:nonzero;"/>
            <path d="M307.596,728.691L307.596,725.463L309.696,725.463L309.696,724.131L307.596,724.131L307.596,721.779L309.936,721.779L309.936,720.447L306.06,720.447L306.06,728.691L307.596,728.691Z" style="fill:rgb(15,178,242);fill-rule:nonzero;"/>
            <path d="M312.444,725.379L312.492,725.163C312.772,723.747 312.948,722.671 313.02,721.935C313.068,722.535 313.244,723.611 313.548,725.163L313.596,725.379L312.444,725.379ZM314.268,728.691L315.78,728.691L314.016,720.447L312.024,720.447L310.26,728.691L311.772,728.691L312.18,726.675L313.86,726.675L314.268,728.691Z" style="fill:rgb(15,178,242);fill-rule:nonzero;"/>
            <path d="M320.616,727.371L318.132,727.371L318.132,725.187L320.28,725.187L320.28,723.855L318.132,723.855L318.132,721.779L320.616,721.779L320.616,720.447L316.608,720.447L316.608,728.691L320.616,728.691L320.616,727.371Z" style="fill:rgb(15,178,242);fill-rule:nonzero;"/>
            <path d="M325.416,727.371L323.148,727.371L323.148,720.447L321.612,720.447L321.612,728.691L325.416,728.691L325.416,727.371Z" style="fill:rgb(15,178,242);fill-rule:nonzero;"/>
            <path d="M331.848,727.371L329.58,727.371L329.58,720.447L328.044,720.447L328.044,728.691L331.848,728.691L331.848,727.371Z" style="fill:rgb(15,178,242);fill-rule:nonzero;"/>
            <path d="M337.224,722.403C337.224,721.771 337.02,721.267 336.612,720.891C336.204,720.515 335.612,720.327 334.836,720.327C334.06,720.327 333.472,720.515 333.072,720.891C332.672,721.267 332.472,721.771 332.472,722.403L332.472,726.735C332.472,727.367 332.672,727.871 333.072,728.247C333.472,728.623 334.06,728.811 334.836,728.811C335.612,728.811 336.204,728.623 336.612,728.247C337.02,727.871 337.224,727.367 337.224,726.735L337.224,722.403ZM335.7,726.663C335.7,727.167 335.412,727.419 334.836,727.419C334.276,727.419 333.996,727.167 333.996,726.663L333.996,722.475C333.996,721.971 334.276,721.719 334.836,721.719C335.412,721.719 335.7,721.971 335.7,722.475L335.7,726.663Z" style="fill:rgb(15,178,242);fill-rule:nonzero;"/>
            <path d="M340.536,726.111C340.792,726.143 341.004,726.159 341.172,726.159C341.78,726.159 342.25,725.979 342.582,725.619C342.914,725.259 343.08,724.751 343.08,724.095L343.08,722.523C343.08,721.891 342.878,721.387 342.474,721.011C342.07,720.635 341.48,720.447 340.704,720.447L338.472,720.447L338.472,728.691L340.008,728.691L340.008,721.779L340.692,721.779C341.268,721.779 341.556,722.027 341.556,722.523L341.556,724.143C341.556,724.591 341.324,724.815 340.86,724.815C340.756,724.815 340.648,724.803 340.536,724.779L340.536,726.111Z" style="fill:rgb(15,178,242);fill-rule:nonzero;"/>
            <path d="M348.108,727.371L345.624,727.371L345.624,725.187L347.772,725.187L347.772,723.855L345.624,723.855L345.624,721.779L348.108,721.779L348.108,720.447L344.1,720.447L344.1,728.691L348.108,728.691L348.108,727.371Z" style="fill:rgb(15,178,242);fill-rule:nonzero;"/>
            <path d="M351.3,725.571C351.54,725.723 351.704,725.867 351.792,726.003C351.88,726.139 351.924,726.315 351.924,726.531L351.924,726.699C351.924,727.195 351.644,727.443 351.084,727.443C350.54,727.443 350.268,727.195 350.268,726.699L350.268,726.147L348.732,726.147L348.732,726.759C348.732,727.391 348.93,727.891 349.326,728.259C349.722,728.627 350.308,728.811 351.084,728.811C351.86,728.811 352.45,728.627 352.854,728.259C353.258,727.891 353.46,727.391 353.46,726.759L353.46,726.459C353.46,726.019 353.374,725.647 353.202,725.343C353.03,725.039 352.756,724.763 352.38,724.515L350.988,723.615C350.74,723.455 350.566,723.301 350.466,723.153C350.366,723.005 350.316,722.827 350.316,722.619L350.316,722.439C350.316,722.199 350.374,722.017 350.49,721.893C350.606,721.769 350.808,721.707 351.096,721.707C351.616,721.707 351.876,721.951 351.876,722.439L351.876,722.979L353.412,722.979L353.412,722.391C353.412,721.751 353.22,721.247 352.836,720.879C352.452,720.511 351.872,720.327 351.096,720.327C350.32,720.327 349.74,720.511 349.356,720.879C348.972,721.247 348.78,721.751 348.78,722.391L348.78,722.679C348.78,723.511 349.16,724.175 349.92,724.671L351.3,725.571Z" style="fill:rgb(15,178,242);fill-rule:nonzero;"/>
        </g>
        <g transform="matrix(1.6663,0,0,1.71872,-436.583,-1198.93)">
            <path d="M294.708,720.699L294.708,728.691L296.616,728.691C297.248,728.691 297.724,728.527 298.044,728.199C298.364,727.871 298.524,727.435 298.524,726.891L298.524,722.499C298.524,721.955 298.364,721.519 298.044,721.191C297.724,720.863 297.248,720.699 296.616,720.699L294.708,720.699ZM295.308,728.151L295.308,721.239L296.616,721.239C297.488,721.239 297.924,721.659 297.924,722.499L297.924,726.891C297.924,727.731 297.488,728.151 296.616,728.151L295.308,728.151Z" style="fill:rgb(242,99,111);fill-rule:nonzero;"/>
            <path d="M305.196,728.151L302.484,728.151L302.484,724.935L304.848,724.935L304.848,724.395L302.484,724.395L302.484,721.239L305.196,721.239L305.196,720.699L301.884,720.699L301.884,728.691L305.196,728.691L305.196,728.151Z" style="fill:rgb(242,99,111);fill-rule:nonzero;"/>
            <path d="M310.08,725.367C310.392,725.575 310.616,725.781 310.752,725.985C310.888,726.189 310.96,726.467 310.968,726.819L310.968,726.975C310.968,727.375 310.854,727.691 310.626,727.923C310.398,728.155 310.056,728.271 309.6,728.271C309.144,728.271 308.806,728.155 308.586,727.923C308.366,727.691 308.256,727.375 308.256,726.975L308.256,726.447L307.656,726.447L307.656,726.975C307.656,727.519 307.822,727.961 308.154,728.301C308.486,728.641 308.968,728.811 309.6,728.811C310.224,728.811 310.704,728.645 311.04,728.313C311.376,727.981 311.548,727.547 311.556,727.011L311.556,726.591C311.556,725.975 311.172,725.407 310.404,724.887L309.216,724.107C308.912,723.907 308.684,723.699 308.532,723.483C308.38,723.267 308.304,722.983 308.304,722.631L308.304,722.415C308.304,721.551 308.74,721.119 309.612,721.119C310.476,721.119 310.908,721.551 310.908,722.415L310.908,722.835L311.508,722.835L311.508,722.415C311.508,721.871 311.35,721.429 311.034,721.089C310.718,720.749 310.244,720.579 309.612,720.579C308.98,720.579 308.506,720.749 308.19,721.089C307.874,721.429 307.716,721.871 307.716,722.415L307.716,722.763C307.716,723.467 308.108,724.075 308.892,724.587L310.08,725.367Z" style="fill:rgb(242,99,111);fill-rule:nonzero;"/>
            <rect x="314.616" y="720.699" width="0.6" height="7.992" style="fill:rgb(242,99,111);fill-rule:nonzero;"/>
            <path d="M318.576,726.975C318.576,727.527 318.728,727.969 319.032,728.301C319.336,728.633 319.796,728.799 320.412,728.799C321.044,728.799 321.504,728.599 321.792,728.199L321.792,728.691L322.392,728.691L322.392,724.671L320.796,724.671L320.796,725.211L321.792,725.211L321.792,726.975C321.792,727.367 321.674,727.679 321.438,727.911C321.202,728.143 320.864,728.259 320.424,728.259C319.592,728.259 319.176,727.831 319.176,726.975L319.176,722.415C319.176,721.551 319.612,721.119 320.484,721.119C321.356,721.119 321.792,721.551 321.792,722.415L321.792,722.967L322.392,722.967L322.392,722.415C322.392,721.871 322.232,721.429 321.912,721.089C321.592,720.749 321.116,720.579 320.484,720.579C319.852,720.579 319.376,720.749 319.056,721.089C318.736,721.429 318.576,721.871 318.576,722.415L318.576,726.975Z" style="fill:rgb(242,99,111);fill-rule:nonzero;"/>
            <path d="M329.112,728.691L329.904,728.691L329.904,720.699L329.304,720.699L329.304,725.259C329.304,726.499 329.312,727.307 329.328,727.683L328.38,725.247L326.592,720.699L325.812,720.699L325.812,728.691L326.412,728.691L326.412,724.155C326.412,723.139 326.4,722.331 326.376,721.731L327.324,724.167L329.112,728.691Z" style="fill:rgb(242,99,111);fill-rule:nonzero;"/>
            <path d="M336.696,728.151L333.984,728.151L333.984,724.935L336.348,724.935L336.348,724.395L333.984,724.395L333.984,721.239L336.696,721.239L336.696,720.699L333.384,720.699L333.384,728.691L336.696,728.691L336.696,728.151Z" style="fill:rgb(242,99,111);fill-rule:nonzero;"/>
            <path d="M340.176,724.827L340.176,721.239L341.34,721.239C342.212,721.239 342.648,721.659 342.648,722.499L342.648,723.591C342.648,724.415 342.212,724.827 341.34,724.827L340.176,724.827ZM343.476,728.691L342.216,725.247C342.904,724.991 343.248,724.439 343.248,723.591L343.248,722.499C343.248,721.955 343.088,721.519 342.768,721.191C342.448,720.863 341.972,720.699 341.34,720.699L339.576,720.699L339.576,728.691L340.176,728.691L340.176,725.391L341.34,725.391C341.468,725.391 341.564,725.387 341.628,725.379L342.816,728.691L343.476,728.691Z" style="fill:rgb(242,99,111);fill-rule:nonzero;"/>
            <path d="M350.208,726.975C350.208,727.527 350.36,727.969 350.664,728.301C350.968,728.633 351.428,728.799 352.044,728.799C352.676,728.799 353.136,728.599 353.424,728.199L353.424,728.691L354.024,728.691L354.024,724.671L352.428,724.671L352.428,725.211L353.424,725.211L353.424,726.975C353.424,727.367 353.306,727.679 353.07,727.911C352.834,728.143 352.496,728.259 352.056,728.259C351.224,728.259 350.808,727.831 350.808,726.975L350.808,722.415C350.808,721.551 351.244,721.119 352.116,721.119C352.988,721.119 353.424,721.551 353.424,722.415L353.424,722.967L354.024,722.967L354.024,722.415C354.024,721.871 353.864,721.429 353.544,721.089C353.224,720.749 352.748,720.579 352.116,720.579C351.484,720.579 351.008,720.749 350.688,721.089C350.368,721.429 350.208,721.871 350.208,722.415L350.208,726.975Z" style="fill:rgb(242,99,111);fill-rule:nonzero;"/>
            <path d="M358.044,724.827L358.044,721.239L359.208,721.239C360.08,721.239 360.516,721.659 360.516,722.499L360.516,723.591C360.516,724.415 360.08,724.827 359.208,724.827L358.044,724.827ZM361.344,728.691L360.084,725.247C360.772,724.991 361.116,724.439 361.116,723.591L361.116,722.499C361.116,721.955 360.956,721.519 360.636,721.191C360.316,720.863 359.84,720.699 359.208,720.699L357.444,720.699L357.444,728.691L358.044,728.691L358.044,725.391L359.208,725.391C359.336,725.391 359.432,725.387 359.496,725.379L360.684,728.691L361.344,728.691Z" style="fill:rgb(242,99,111);fill-rule:nonzero;"/>
            <path d="M366.96,718.935L366.3,718.935L365.856,720.195L366.3,720.195L366.96,718.935ZM365.052,725.811L365.472,723.975C365.808,722.495 366.004,721.551 366.06,721.143L366.096,721.359C366.12,721.503 366.18,721.811 366.276,722.283C366.372,722.755 366.496,723.319 366.648,723.975L367.068,725.811L365.052,725.811ZM367.74,728.691L368.364,728.691L366.492,720.699L365.628,720.699L363.756,728.691L364.38,728.691L364.92,726.351L367.2,726.351L367.74,728.691Z" style="fill:rgb(242,99,111);fill-rule:nonzero;"/>
            <path d="M371.724,728.691L371.724,725.055L374.052,725.055L374.052,724.515L371.724,724.515L371.724,721.239L374.22,721.239L374.22,720.699L371.124,720.699L371.124,728.691L371.724,728.691Z" style="fill:rgb(242,99,111);fill-rule:nonzero;"/>
            <rect x="376.92" y="720.699" width="0.6" height="7.992" style="fill:rgb(242,99,111);fill-rule:nonzero;"/>
            <path d="M384.096,726.471L384.096,726.975C384.096,727.839 383.66,728.271 382.788,728.271C381.916,728.271 381.48,727.839 381.48,726.975L381.48,722.415C381.48,721.551 381.916,721.119 382.788,721.119C383.66,721.119 384.096,721.551 384.096,722.415L384.096,722.967L384.696,722.967L384.696,722.415C384.696,721.871 384.536,721.429 384.216,721.089C383.896,720.749 383.42,720.579 382.788,720.579C382.156,720.579 381.68,720.749 381.36,721.089C381.04,721.429 380.88,721.871 380.88,722.415L380.88,726.975C380.88,727.519 381.04,727.961 381.36,728.301C381.68,728.641 382.156,728.811 382.788,728.811C383.42,728.811 383.896,728.641 384.216,728.301C384.536,727.961 384.696,727.519 384.696,726.975L384.696,726.471L384.096,726.471Z" style="fill:rgb(242,99,111);fill-rule:nonzero;"/>
            <path d="M391.632,722.415C391.632,721.871 391.472,721.429 391.152,721.089C390.832,720.749 390.356,720.579 389.724,720.579C389.092,720.579 388.616,720.749 388.296,721.089C387.976,721.429 387.816,721.871 387.816,722.415L387.816,726.975C387.816,727.519 387.976,727.961 388.296,728.301C388.616,728.641 389.092,728.811 389.724,728.811C390.356,728.811 390.832,728.641 391.152,728.301C391.472,727.961 391.632,727.519 391.632,726.975L391.632,722.415ZM391.032,726.975C391.032,727.839 390.596,728.271 389.724,728.271C388.852,728.271 388.416,727.839 388.416,726.975L388.416,722.415C388.416,721.551 388.852,721.119 389.724,721.119C390.596,721.119 391.032,721.551 391.032,722.415L391.032,726.975Z" style="fill:rgb(242,99,111);fill-rule:nonzero;"/>
        </g>
        <g transform="matrix(0.0893894,0,0,0.0893894,-62.0039,-7.80051)">
            <path d="M1060.53,220.986C1154.51,220.986 1230.7,297.165 1230.7,391.143C1230.7,471.652 1174.78,539.087 1099.7,556.787L1230.71,687.859L1197.69,687.859L1066.69,556.787C1141.77,539.087 1197.67,471.652 1197.67,391.143C1197.67,297.165 1121.5,220.986 1027.49,220.986L1060.53,220.986ZM919.115,606.126L919.115,687.859L886.092,687.859L886.092,573.099L919.115,606.126ZM1044.01,431.461C1038.91,433.545 1033.34,434.694 1027.49,434.694C1003.4,434.694 983.867,415.164 983.867,391.082C983.867,366.962 1003.4,347.444 1027.49,347.444C1033.34,347.444 1038.91,348.592 1044.01,350.676C1028.1,357.181 1016.89,372.811 1016.89,391.082C1016.89,409.324 1028.1,424.954 1044.01,431.461Z" style="fill:rgb(242,99,111);fill-rule:nonzero;"/>
        </g>
        <g transform="matrix(1.10564,0,0,1.10564,28.9491,34.5835)">
            <path d="M0,-3.19C-1.948,-3.19 -3.527,-4.769 -3.527,-6.716C-3.527,-8.666 -1.948,-10.244 0,-10.244C1.949,-10.244 3.527,-8.666 3.527,-6.716C3.527,-4.769 1.949,-3.19 0,-3.19M3.169,6.681C9.239,5.25 13.759,-0.202 13.759,-6.711C13.759,-14.309 7.6,-20.468 0,-20.468L-21.656,-20.468L-21.656,17.278L-11.432,17.278L-11.432,6.546L-0.701,17.278L13.76,17.278L3.169,6.681Z" style="fill:rgb(15,178,242);fill-rule:nonzero;"/>
        </g>
    </g>
</svg>
