<?xml version="1.0" encoding="UTF-8" standalone="no"?>
<!DOCTYPE svg PUBLIC "-//W3C//DTD SVG 1.1//EN" "http://www.w3.org/Graphics/SVG/1.1/DTD/svg11.dtd">
<svg width="100%" height="100%" viewBox="0 0 100 100" version="1.1" xmlns="http://www.w3.org/2000/svg" xmlns:xlink="http://www.w3.org/1999/xlink" xml:space="preserve" xmlns:serif="http://www.serif.com/" style="fill-rule:evenodd;clip-rule:evenodd;stroke-linejoin:round;stroke-miterlimit:2;">
    <g transform="matrix(2.7377,0,0,2.7377,-89.1795,-87.385)">
        <g>
            <g transform="matrix(4.09683e-17,0.669063,-0.840228,5.14491e-17,124.991,34.5036)">
                <path d="M19.635,87.047C19.635,84.546 17.088,82.518 13.946,82.518C13.944,82.518 13.943,82.518 13.941,82.518C10.8,82.518 8.253,84.546 8.253,87.047L8.253,97.595L19.635,97.595L19.635,87.047ZM18.14,87.047L18.14,96.405C18.14,96.405 9.747,96.405 9.747,96.405C9.747,96.405 9.747,87.047 9.747,87.047C9.747,85.203 11.625,83.708 13.941,83.708C13.943,83.708 13.944,83.708 13.946,83.708C16.262,83.708 18.14,85.203 18.14,87.047Z" style="fill:white;"/>
            </g>
            <path d="M65.906,43.136C65.906,43.136 65.906,43.136 65.906,43.136C65.906,37.253 61.137,32.484 55.255,32.484L36.482,32.484L36.482,67.323L44.097,67.323L44.097,53.788C44.097,53.788 48.042,53.788 48.042,53.788C48.042,53.788 48.042,67.016 48.042,67.016L48.042,67.516L63.779,67.516L63.779,59.901L55.706,59.901C55.706,59.901 55.706,53.776 55.706,53.776C61.359,53.515 65.906,48.85 65.906,43.136ZM49.042,66.516L49.042,52.788L43.097,52.788L43.097,66.323C43.097,66.323 37.482,66.323 37.482,66.323C37.482,66.323 37.482,33.484 37.482,33.484C37.482,33.484 55.255,33.484 55.255,33.484C60.585,33.484 64.906,37.805 64.906,43.136C64.906,43.138 64.906,43.14 64.906,43.142C64.906,48.467 60.537,52.788 55.206,52.788L54.706,52.788L54.706,60.901L62.779,60.901C62.779,60.901 62.779,66.516 62.779,66.516L49.042,66.516ZM65.458,43.584C65.426,43.597 65.406,43.612 65.406,43.636L65.458,43.584Z" style="fill:white;"/>
        </g>
    </g>
</svg>
