<?xml version="1.0" encoding="UTF-8" standalone="no"?>
<!DOCTYPE svg PUBLIC "-//W3C//DTD SVG 1.1//EN" "http://www.w3.org/Graphics/SVG/1.1/DTD/svg11.dtd">
<svg width="100%" height="100%" viewBox="0 0 221 66" version="1.1" xmlns="http://www.w3.org/2000/svg" xmlns:xlink="http://www.w3.org/1999/xlink" xml:space="preserve" xmlns:serif="http://www.serif.com/" style="fill-rule:evenodd;clip-rule:evenodd;stroke-linejoin:round;stroke-miterlimit:2;">
    <g transform="matrix(0.120773,0,0,0.120773,72.1218,27.2775)">
        <g transform="matrix(22.6546,0,0,22.6546,-6816.24,-16445.6)">
            <text x="293.748px" y="728.691px" style="font-family:'Akhand-Extrabold';font-size:12px;fill:rgb(15,178,242);">RAFAEL LOPES</text>
        </g>
        <g transform="matrix(13.797,0,0,14.231,-4212.07,-10153)">
            <text x="293.748px" y="728.691px" style="font-family:'Akhand-Extralight';font-size:12px;fill:rgb(242,99,111);">D<tspan x="300.924px 307.116px 313.656px 317.736px 324.852px 332.424px 338.616px 345.648px 349.368px 356.484px 363.516px 370.164px 375.96px 380.04px 386.976px " y="728.691px 728.691px 728.691px 728.691px 728.691px 728.691px 728.691px 728.691px 728.691px 728.691px 728.691px 728.691px 728.691px 728.691px 728.691px ">ESIGNER GRÁFICO</tspan></text>
        </g>
        <g transform="matrix(0.740143,0,0,0.740143,-1110.56,-290.445)">
            <path d="M1060.53,220.986C1154.51,220.986 1230.7,297.165 1230.7,391.143C1230.7,471.652 1174.78,539.087 1099.7,556.787L1230.71,687.859L1197.69,687.859L1066.69,556.787C1141.77,539.087 1197.67,471.652 1197.67,391.143C1197.67,297.165 1121.5,220.986 1027.49,220.986L1060.53,220.986ZM919.115,606.126L919.115,687.859L886.092,687.859L886.092,573.099L919.115,606.126ZM1044.01,431.461C1038.91,433.545 1033.34,434.694 1027.49,434.694C1003.4,434.694 983.867,415.164 983.867,391.082C983.867,366.962 1003.4,347.444 1027.49,347.444C1033.34,347.444 1038.91,348.592 1044.01,350.676C1028.1,357.181 1016.89,372.811 1016.89,391.082C1016.89,409.324 1028.1,424.954 1044.01,431.461Z" style="fill:rgb(242,99,111);fill-rule:nonzero;"/>
        </g>
        <g transform="matrix(9.15469,0,0,9.15469,-357.469,60.494)">
            <path d="M0,-3.19C-1.948,-3.19 -3.527,-4.769 -3.527,-6.716C-3.527,-8.666 -1.948,-10.244 0,-10.244C1.949,-10.244 3.527,-8.666 3.527,-6.716C3.527,-4.769 1.949,-3.19 0,-3.19M3.169,6.681C9.239,5.25 13.759,-0.202 13.759,-6.711C13.759,-14.309 7.6,-20.468 0,-20.468L-21.656,-20.468L-21.656,17.278L-11.432,17.278L-11.432,6.546L-0.701,17.278L13.76,17.278L3.169,6.681Z" style="fill:rgb(15,178,242);fill-rule:nonzero;"/>
        </g>
    </g>
</svg>
