<?xml version="1.0" encoding="UTF-8" standalone="no"?>
<svg
   width="221"
   height="65.64"
   viewBox="0 0 221 65.64"
   version="1.1"
   id="svg18"
   sodipodi:docname="meuLogo.svg"
   inkscape:version="1.1 (c68e22c387, 2021-05-23)"
   xmlns:inkscape="http://www.inkscape.org/namespaces/inkscape"
   xmlns:sodipodi="http://sodipodi.sourceforge.net/DTD/sodipodi-0.dtd"
   xmlns="http://www.w3.org/2000/svg"
   xmlns:svg="http://www.w3.org/2000/svg">
  <defs
     id="defs22" />
  <sodipodi:namedview
     id="namedview20"
     pagecolor="#ffffff"
     bordercolor="#666666"
     borderopacity="1.0"
     inkscape:pageshadow="2"
     inkscape:pageopacity="0.0"
     inkscape:pagecheckerboard="0"
     showgrid="false"
     inkscape:zoom="4.1466533"
     inkscape:cx="163.98767"
     inkscape:cy="43.28792"
     inkscape:window-width="2560"
     inkscape:window-height="1013"
     inkscape:window-x="1911"
     inkscape:window-y="-9"
     inkscape:window-maximized="1"
     inkscape:current-layer="svg18"
     inkscape:snap-bbox="true"
     inkscape:object-paths="true"
     inkscape:snap-intersection-paths="true"
     inkscape:snap-smooth-nodes="true" />
  <g
     id="g24207"
     transform="matrix(1.1178628,0,0,1.1178628,-7.7564432,-2.9904854)"
     style="stroke-width:0.894564">
    <g
       aria-label="RAFAELLOPES"
       id="LOGOMARCA"
       style="font-weight:800;font-size:22.1347px;font-family:Roboto-Black, Roboto;fill:#0fb2f2;stroke-width:0.653456"
       transform="matrix(1.3689707,0,0,1.3689707,-83.669248,-7.6357826)">
      <path
         d="m 106.73579,18.176037 h 1.30595 c 1.04033,0 1.57157,0.464829 1.57157,1.372352 v 1.992123 c 0,0.929657 -0.53124,1.372351 -1.57157,1.372351 h -1.30595 z m 2.96605,12.749588 h 3.09886 l -2.21347,-6.087043 c 1.21741,-0.619771 1.83718,-1.726507 1.83718,-3.275936 v -2.014257 c 0,-1.151005 -0.37629,-2.080662 -1.12887,-2.788973 -0.75258,-0.686175 -1.83718,-1.040331 -3.2538,-1.040331 h -4.11705 v 15.20654 h 2.8111 v -5.55581 h 1.15101 z"
         style="font-weight:bold;font-family:Akhand-Extrabold;-inkscape-font-specification:'Akhand-Extrabold Bold';stroke-width:0.653456"
         id="path23904" />
      <path
         d="m 117.69244,24.816447 0.0885,-0.398424 c 0.5091,-2.611895 0.84112,-4.581883 0.97393,-5.954235 0.0885,1.106735 0.39842,3.098858 0.97393,5.954235 l 0.0885,0.398424 z m 3.36448,6.109178 h 2.78897 l -3.2538,-15.20654 h -3.67436 l -3.2538,15.20654 h 2.78897 l 0.75258,-3.71863 h 3.09886 z"
         style="font-weight:bold;font-family:Akhand-Extrabold;-inkscape-font-specification:'Akhand-Extrabold Bold';stroke-width:0.653456"
         id="path23906" />
      <path
         d="M 128.20641,30.925625 V 24.97139 h 3.87357 v -2.456951 h -3.87357 v -4.338402 h 4.31626 v -2.456952 h -7.1495 v 15.20654 z"
         style="font-weight:bold;font-family:Akhand-Extrabold;-inkscape-font-specification:'Akhand-Extrabold Bold';stroke-width:0.653456"
         id="path23908" />
      <path
         d="m 137.1488,24.816447 0.0885,-0.398424 c 0.5091,-2.611895 0.84112,-4.581883 0.97393,-5.954235 0.0885,1.106735 0.39843,3.098858 0.97393,5.954235 l 0.0885,0.398424 z m 3.36447,6.109178 h 2.78897 l -3.2538,-15.20654 h -3.67436 l -3.2538,15.20654 h 2.78897 l 0.75258,-3.71863 h 3.09886 z"
         style="font-weight:bold;font-family:Akhand-Extrabold;-inkscape-font-specification:'Akhand-Extrabold Bold';stroke-width:0.653456"
         id="path23910" />
      <path
         d="m 152.22251,28.490808 h -4.58188 v -4.028516 h 3.96211 V 22.00534 h -3.96211 v -3.829303 h 4.58188 v -2.456952 h -7.39299 v 15.20654 h 7.39299 z"
         style="font-weight:bold;font-family:Akhand-Extrabold;-inkscape-font-specification:'Akhand-Extrabold Bold';stroke-width:0.653456"
         id="path23912" />
      <path
         d="m 161.07639,28.490808 h -4.18346 V 15.719085 h -2.83324 v 15.20654 h 7.0167 z"
         style="font-weight:bold;font-family:Akhand-Extrabold;-inkscape-font-specification:'Akhand-Extrabold Bold';stroke-width:0.653456"
         id="path23914" />
      <path
         d="m 169.46543,28.490808 h -4.18346 V 15.719085 h -2.83324 v 15.20654 h 7.0167 z"
         style="font-weight:bold;font-family:Akhand-Extrabold;-inkscape-font-specification:'Akhand-Extrabold Bold';stroke-width:0.653456"
         id="path23916" />
      <path
         d="m 179.38177,19.327042 c 0,-1.151005 -0.37629,-2.080662 -1.12887,-2.788973 -0.75258,-0.686175 -1.85932,-1.040331 -3.27594,-1.040331 -1.43875,0 -2.52335,0.354156 -3.2538,1.040331 -0.75258,0.708311 -1.10673,1.637968 -1.10673,2.788973 v 7.990627 c 0,1.173139 0.35415,2.102796 1.10673,2.788972 0.73045,0.70831 1.81505,1.040331 3.2538,1.040331 1.41662,0 2.52336,-0.332021 3.27594,-1.040331 0.75258,-0.686176 1.12887,-1.615833 1.12887,-2.788972 z m -2.81111,7.857818 c 0,0.929658 -0.53123,1.394487 -1.5937,1.394487 -1.04033,0 -1.54943,-0.464829 -1.54943,-1.394487 v -7.72501 c 0,-0.929658 0.5091,-1.394486 1.54943,-1.394486 1.06247,0 1.5937,0.464828 1.5937,1.394486 z"
         style="font-weight:bold;font-family:Akhand-Extrabold;-inkscape-font-specification:'Akhand-Extrabold Bold';stroke-width:0.653456"
         id="path23918" />
      <path
         d="m 185.49094,26.166664 c 0.46483,0.0664 0.86326,0.08854 1.17314,0.08854 1.10674,0 1.96999,-0.332021 2.58976,-0.996062 0.61977,-0.664041 0.92966,-1.593698 0.92966,-2.811107 V 19.54839 c 0,-1.151005 -0.37629,-2.080662 -1.12887,-2.788973 -0.75258,-0.686175 -1.83718,-1.040331 -3.2538,-1.040331 h -4.11706 v 15.20654 h 2.83325 V 18.176037 h 1.26167 c 1.06247,0 1.5937,0.464829 1.5937,1.372352 v 2.988184 c 0,0.841119 -0.44269,1.239543 -1.28381,1.239543 -0.19921,0 -0.39842,-0.02213 -0.59764,-0.0664 z"
         style="font-weight:bold;font-family:Akhand-Extrabold;-inkscape-font-specification:'Akhand-Extrabold Bold';stroke-width:0.653456"
         id="path23920" />
      <path
         d="m 199.45794,28.490808 h -4.58189 v -4.028516 h 3.96211 V 22.00534 h -3.96211 v -3.829303 h 4.58189 v -2.456952 h -7.39299 v 15.20654 h 7.39299 z"
         style="font-weight:bold;font-family:Akhand-Extrabold;-inkscape-font-specification:'Akhand-Extrabold Bold';stroke-width:0.653456"
         id="path23922" />
      <path
         d="m 205.34576,25.170603 c 0.44269,0.287751 0.73045,0.553367 0.90752,0.796849 0.15495,0.265616 0.24348,0.575502 0.24348,0.973927 v 0.309886 c 0,0.929657 -0.53123,1.372351 -1.54942,1.372351 -1.0182,0 -1.50516,-0.442694 -1.50516,-1.372351 v -1.018197 h -2.83325 v 1.12887 c 0,1.173139 0.35416,2.102797 1.0846,2.766838 0.73045,0.686175 1.81505,1.018196 3.25381,1.018196 1.41662,0 2.50122,-0.332021 3.2538,-1.018196 0.75258,-0.664041 1.12887,-1.593699 1.12887,-2.766838 v -0.553367 c 0,-0.79685 -0.17708,-1.483025 -0.48697,-2.058528 -0.30988,-0.553367 -0.81898,-1.062465 -1.50516,-1.527294 l -2.56762,-1.660103 c -0.46483,-0.287751 -0.79685,-0.575502 -0.97393,-0.841118 -0.17708,-0.265617 -0.26562,-0.597637 -0.26562,-0.996062 v -0.33202 c 0,-0.442694 0.0885,-0.774715 0.30989,-0.996062 0.22135,-0.221347 0.59764,-0.354155 1.12887,-0.354155 0.95179,0 1.43876,0.464829 1.43876,1.350217 v 0.996061 h 2.83324 v -1.0846 c 0,-1.173139 -0.35416,-2.102797 -1.06247,-2.788972 -0.70831,-0.664041 -1.79291,-1.018197 -3.20953,-1.018197 -1.43876,0 -2.50122,0.354156 -3.20953,1.018197 -0.70831,0.686175 -1.06247,1.615833 -1.06247,2.788972 v 0.531233 c 0,1.549429 0.68618,2.766837 2.1028,3.67436 z"
         style="font-weight:bold;font-family:Akhand-Extrabold;-inkscape-font-specification:'Akhand-Extrabold Bold';stroke-width:0.653456"
         id="path23924" />
    </g>
    <g
       aria-label="DESIGNER GRÃFICO"
       id="Lorem_Ipsun_Dolor"
       style="font-weight:300;font-size:17.007px;font-family:Roboto-Light, Roboto;fill:#f2636f;stroke-width:0.748274"
       transform="matrix(1.1955032,0,0,1.1955032,-67.524955,-5.4277119)">
      <path
         d="m 105.04316,37.73892 v 11.326662 h 2.70411 c 0.88437,0 1.56465,-0.221091 2.02384,-0.697287 0.44218,-0.459189 0.68028,-1.071441 0.68028,-1.853763 V 40.28997 c 0,-0.765315 -0.2381,-1.377567 -0.68028,-1.853763 -0.45919,-0.459189 -1.13947,-0.697287 -2.02384,-0.697287 z m 0.85035,10.561347 v -9.796032 h 1.85376 c 1.22451,0 1.85377,0.595245 1.85377,1.785735 v 6.224562 c 0,1.19049 -0.62926,1.785735 -1.85377,1.785735 z"
         style="font-weight:normal;font-family:Akhand-Extralight;-inkscape-font-specification:Akhand-Extralight;stroke-width:0.748274"
         id="path23873" />
      <path
         d="m 117.69634,48.300267 h -3.84358 v -4.557876 h 3.35038 v -0.765315 h -3.35038 v -4.472841 h 3.84358 V 37.73892 h -4.69393 v 11.326662 h 4.69393 z"
         style="font-weight:normal;font-family:Akhand-Extralight;-inkscape-font-specification:Akhand-Extralight;stroke-width:0.748274"
         id="path23875" />
      <path
         d="m 122.40728,44.354643 c 0.44218,0.306126 0.74831,0.595245 0.95239,0.884364 0.18708,0.289119 0.28912,0.68028 0.30613,1.173483 v 0.221091 c 0,0.578238 -0.17007,1.02042 -0.49321,1.343553 -0.32313,0.34014 -0.79933,0.493203 -1.44559,0.493203 -0.64627,0 -1.13947,-0.153063 -1.4456,-0.493203 -0.30612,-0.323133 -0.45919,-0.765315 -0.45919,-1.343553 v -0.748308 h -0.85035 v 0.748308 c 0,0.782322 0.22109,1.411581 0.69729,1.887777 0.4762,0.476196 1.15648,0.714294 2.05785,0.714294 0.88436,0 1.56464,-0.221091 2.04084,-0.697287 0.47619,-0.476196 0.71429,-1.088448 0.7313,-1.853763 v -0.595245 c 0,-0.867357 -0.54423,-1.666686 -1.63267,-2.414994 l -1.6837,-1.105455 c -0.44218,-0.272112 -0.76531,-0.578238 -0.9694,-0.884364 -0.22109,-0.306126 -0.32313,-0.697287 -0.32313,-1.207497 v -0.306126 c 0,-1.224504 0.61225,-1.836756 1.85376,-1.836756 1.22451,0 1.83676,0.612252 1.83676,1.836756 v 0.595245 h 0.85035 v -0.595245 c 0,-0.765315 -0.2381,-1.394574 -0.68028,-1.87077 -0.44218,-0.476196 -1.12246,-0.731301 -2.00683,-0.731301 -0.90137,0 -1.58165,0.255105 -2.02383,0.731301 -0.44218,0.476196 -0.66327,1.105455 -0.66327,1.87077 v 0.493203 c 0,1.003413 0.54422,1.87077 1.66668,2.585064 z"
         style="font-weight:normal;font-family:Akhand-Extralight;-inkscape-font-specification:Akhand-Extralight;stroke-width:0.748274"
         id="path23877" />
      <path
         d="M 127.47535,49.065582 V 37.73892 H 126.625 v 11.326662 z"
         style="font-weight:normal;font-family:Akhand-Extralight;-inkscape-font-specification:Akhand-Extralight;stroke-width:0.748274"
         id="path23879" />
      <path
         d="m 130.02638,46.633581 c 0,0.782322 0.20409,1.411581 0.64627,1.887777 0.42517,0.476196 1.07144,0.697287 1.9558,0.697287 0.88437,0 1.54764,-0.272112 1.95581,-0.85035 v 0.697287 h 0.85035 v -5.697345 h -2.26193 v 0.765315 h 1.41158 v 2.500029 c 0,0.561231 -0.17007,1.003413 -0.51021,1.326546 -0.34014,0.34014 -0.81634,0.493203 -1.42859,0.493203 -1.19049,0 -1.76873,-0.595245 -1.76873,-1.819749 v -6.46266 c 0,-1.224504 0.61225,-1.836756 1.85376,-1.836756 1.22451,0 1.85377,0.612252 1.85377,1.836756 v 0.782322 h 0.85035 v -0.782322 c 0,-0.765315 -0.2381,-1.394574 -0.68028,-1.87077 -0.45919,-0.476196 -1.13947,-0.731301 -2.02384,-0.731301 -0.90137,0 -1.58165,0.255105 -2.02383,0.731301 -0.45919,0.476196 -0.68028,1.105455 -0.68028,1.87077 z"
         style="font-weight:normal;font-family:Akhand-Extralight;-inkscape-font-specification:Akhand-Extralight;stroke-width:0.748274"
         id="path23881" />
      <path
         d="m 142.74761,49.065582 h 1.12246 V 37.73892 h -0.85035 v 6.46266 c 0,1.768728 0,2.908197 0.034,3.435414 l -1.34355,-3.452421 -2.53404,-6.445653 h -1.10546 v 11.326662 h 0.85035 v -6.428646 c 0,-1.428588 -0.017,-2.585064 -0.051,-3.435414 l 1.34355,3.452421 z"
         style="font-weight:normal;font-family:Akhand-Extralight;-inkscape-font-specification:Akhand-Extralight;stroke-width:0.748274"
         id="path23883" />
      <path
         d="m 151.28511,48.300267 h -3.84358 v -4.557876 h 3.35038 v -0.765315 h -3.35038 v -4.472841 h 3.84358 V 37.73892 h -4.69393 v 11.326662 h 4.69393 z"
         style="font-weight:normal;font-family:Akhand-Extralight;-inkscape-font-specification:Akhand-Extralight;stroke-width:0.748274"
         id="path23885" />
      <path
         d="m 154.00622,43.589328 v -5.085093 h 1.64968 c 1.22451,0 1.85377,0.595245 1.85377,1.785735 v 1.547637 c 0,1.173483 -0.62926,1.751721 -1.85377,1.751721 z m 4.67693,5.476254 -1.78574,-4.881009 c 0.9694,-0.357147 1.46261,-1.139469 1.46261,-2.346966 V 40.28997 c 0,-0.765315 -0.2381,-1.377567 -0.68028,-1.853763 -0.45919,-0.459189 -1.13947,-0.697287 -2.02384,-0.697287 h -2.50003 v 11.326662 h 0.85035 v -4.676925 h 1.64968 c 0.17007,0 0.30613,0 0.40817,-0.01701 l 1.68369,4.693932 z"
         style="font-weight:normal;font-family:Akhand-Extralight;-inkscape-font-specification:Akhand-Extralight;stroke-width:0.748274"
         id="path23887" />
      <path
         d="m 163.80222,46.633581 c 0,0.782322 0.20408,1.411581 0.64626,1.887777 0.42518,0.476196 1.07145,0.697287 1.95581,0.697287 0.88436,0 1.54764,-0.272112 1.9558,-0.85035 v 0.697287 h 0.85035 v -5.697345 h -2.26193 v 0.765315 h 1.41158 v 2.500029 c 0,0.561231 -0.17007,1.003413 -0.51021,1.326546 -0.34014,0.34014 -0.81633,0.493203 -1.42858,0.493203 -1.19049,0 -1.76873,-0.595245 -1.76873,-1.819749 v -6.46266 c 0,-1.224504 0.61225,-1.836756 1.85376,-1.836756 1.22451,0 1.85376,0.612252 1.85376,1.836756 v 0.782322 h 0.85035 v -0.782322 c 0,-0.765315 -0.23809,-1.394574 -0.68028,-1.87077 -0.45918,-0.476196 -1.13946,-0.731301 -2.02383,-0.731301 -0.90137,0 -1.58165,0.255105 -2.02383,0.731301 -0.45919,0.476196 -0.68028,1.105455 -0.68028,1.87077 z"
         style="font-weight:normal;font-family:Akhand-Extralight;-inkscape-font-specification:Akhand-Extralight;stroke-width:0.748274"
         id="path23889" />
      <path
         d="m 172.69687,43.589328 v -5.085093 h 1.64968 c 1.2245,0 1.85376,0.595245 1.85376,1.785735 v 1.547637 c 0,1.173483 -0.62926,1.751721 -1.85376,1.751721 z m 4.67693,5.476254 -1.78574,-4.881009 c 0.9694,-0.357147 1.4626,-1.139469 1.4626,-2.346966 V 40.28997 c 0,-0.765315 -0.23809,-1.377567 -0.68028,-1.853763 -0.45919,-0.459189 -1.13947,-0.697287 -2.02383,-0.697287 h -2.50003 v 11.326662 h 0.85035 v -4.676925 h 1.64968 c 0.17007,0 0.30613,0 0.40817,-0.01701 l 1.68369,4.693932 z"
         style="font-weight:normal;font-family:Akhand-Extralight;-inkscape-font-specification:Akhand-Extralight;stroke-width:0.748274"
         id="path23891" />
      <path
         d="m 183.12215,35.238891 h -0.93538 l -0.62926,1.785735 h 0.62926 z m -2.70411,9.745011 0.59524,-2.602071 c 0.4762,-2.091861 0.74831,-3.435414 0.83335,-4.013652 l 0.051,0.306126 c 0.034,0.204084 0.11905,0.646266 0.2551,1.309539 0.13606,0.68028 0.30613,1.479609 0.52722,2.397987 l 0.59524,2.602071 z m 3.80957,4.08168 h 0.88436 L 182.45888,37.73892 h -1.22451 l -2.65309,11.326662 h 0.88437 l 0.76531,-3.316365 h 3.23133 z"
         style="font-weight:normal;font-family:Akhand-Extralight;-inkscape-font-specification:Akhand-Extralight;stroke-width:0.748274"
         id="path23893" />
      <path
         d="m 187.66301,49.065582 v -5.153121 h 3.29936 v -0.765315 h -3.29936 v -4.642911 h 3.53746 V 37.73892 h -4.38781 v 11.326662 z"
         style="font-weight:normal;font-family:Akhand-Extralight;-inkscape-font-specification:Akhand-Extralight;stroke-width:0.748274"
         id="path23895" />
      <path
         d="M 193.66646,49.065582 V 37.73892 h -0.85035 v 11.326662 z"
         style="font-weight:normal;font-family:Akhand-Extralight;-inkscape-font-specification:Akhand-Extralight;stroke-width:0.748274"
         id="path23897" />
      <path
         d="m 200.77537,45.919287 v 0.714294 c 0,1.224504 -0.62925,1.836756 -1.85376,1.836756 -1.24151,0 -1.85376,-0.612252 -1.85376,-1.836756 v -6.46266 c 0,-1.224504 0.61225,-1.836756 1.85376,-1.836756 1.22451,0 1.85376,0.612252 1.85376,1.836756 v 0.782322 h 0.85035 v -0.782322 c 0,-0.765315 -0.23809,-1.394574 -0.68028,-1.87077 -0.45918,-0.476196 -1.13946,-0.731301 -2.02383,-0.731301 -0.90137,0 -1.58165,0.255105 -2.02383,0.731301 -0.45919,0.476196 -0.68028,1.105455 -0.68028,1.87077 v 6.46266 c 0,0.782322 0.22109,1.411581 0.68028,1.887777 0.44218,0.476196 1.12246,0.714294 2.02383,0.714294 0.88437,0 1.56465,-0.238098 2.02383,-0.714294 0.44219,-0.476196 0.68028,-1.105455 0.68028,-1.887777 v -0.714294 z"
         style="font-weight:normal;font-family:Akhand-Extralight;-inkscape-font-specification:Akhand-Extralight;stroke-width:0.748274"
         id="path23899" />
      <path
         d="m 209.24486,40.170921 c 0,-0.765315 -0.2381,-1.394574 -0.68028,-1.87077 -0.45919,-0.476196 -1.13947,-0.731301 -2.02384,-0.731301 -0.90137,0 -1.58165,0.255105 -2.02383,0.731301 -0.45919,0.476196 -0.68028,1.105455 -0.68028,1.87077 v 6.46266 c 0,0.782322 0.22109,1.411581 0.68028,1.887777 0.44218,0.476196 1.12246,0.714294 2.02383,0.714294 0.88437,0 1.56465,-0.238098 2.02384,-0.714294 0.44218,-0.476196 0.68028,-1.105455 0.68028,-1.887777 z m -0.85035,6.46266 c 0,1.224504 -0.62926,1.836756 -1.85377,1.836756 -1.24151,0 -1.85376,-0.612252 -1.85376,-1.836756 v -6.46266 c 0,-1.224504 0.61225,-1.836756 1.85376,-1.836756 1.22451,0 1.85377,0.612252 1.85377,1.836756 z"
         style="font-weight:normal;font-family:Akhand-Extralight;-inkscape-font-specification:Akhand-Extralight;stroke-width:0.748274"
         id="path23901" />
    </g>
    <g
       id="g3682"
       transform="matrix(1.0074535,0,0,1.0074535,-41.458495,-23.720545)"
       style="stroke-width:0.887946">
      <g
         transform="matrix(0.0893894,0,0,0.0893894,-17.402048,16.675759)"
         id="g60"
         style="clip-rule:evenodd;fill-rule:evenodd;stroke-width:0.887946;stroke-linejoin:round;stroke-miterlimit:2">
        <path
           d="m 1060.53,220.986 c 93.98,0 170.17,76.179 170.17,170.157 0,80.509 -55.92,147.944 -131,165.644 l 131.01,131.072 h -33.02 l -131,-131.072 c 75.08,-17.7 130.98,-85.135 130.98,-165.644 0,-93.978 -76.17,-170.157 -170.18,-170.157 z m -141.415,385.14 v 81.733 H 886.092 V 573.099 Z M 1044.01,431.461 c -5.1,2.084 -10.67,3.233 -16.52,3.233 -24.09,0 -43.623,-19.53 -43.623,-43.612 0,-24.12 19.533,-43.638 43.623,-43.638 5.85,0 11.42,1.148 16.52,3.232 -15.91,6.505 -27.12,22.135 -27.12,40.406 0,18.242 11.21,33.872 27.12,40.379 z"
           style="fill:#f2636f;fill-rule:nonzero;stroke-width:0.887946"
           id="path58" />
      </g>
      <g
         transform="matrix(1.10564,0,0,1.10564,73.550952,59.059769)"
         id="g64"
         style="clip-rule:evenodd;fill-rule:evenodd;stroke-width:0.887946;stroke-linejoin:round;stroke-miterlimit:2">
        <path
           d="m 0,-3.19 c -1.948,0 -3.527,-1.579 -3.527,-3.526 0,-1.95 1.579,-3.528 3.527,-3.528 1.949,0 3.527,1.578 3.527,3.528 0,1.947 -1.578,3.526 -3.527,3.526 M 3.169,6.681 C 9.239,5.25 13.759,-0.202 13.759,-6.711 13.759,-14.309 7.6,-20.468 0,-20.468 h -21.656 v 37.746 h 10.224 V 6.546 L -0.701,17.278 H 13.76 Z"
           style="fill:#0fb2f2;fill-rule:nonzero;stroke-width:0.887946"
           id="path62" />
      </g>
    </g>
  </g>
</svg>
