<?xml version="1.0" encoding="UTF-8" standalone="no"?>
<svg
   width="221"
   height="65.64"
   viewBox="0 0 221 65.64"
   version="1.1"
   id="svg18"
   sodipodi:docname="meuLogo.svg"
   inkscape:version="1.1 (c68e22c387, 2021-05-23)"
   xmlns:inkscape="http://www.inkscape.org/namespaces/inkscape"
   xmlns:sodipodi="http://sodipodi.sourceforge.net/DTD/sodipodi-0.dtd"
   xmlns="http://www.w3.org/2000/svg"
   xmlns:svg="http://www.w3.org/2000/svg">
  <defs
     id="defs22" />
  <sodipodi:namedview
     id="namedview20"
     pagecolor="#ffffff"
     bordercolor="#666666"
     borderopacity="1.0"
     inkscape:pageshadow="2"
     inkscape:pageopacity="0.0"
     inkscape:pagecheckerboard="0"
     showgrid="false"
     inkscape:zoom="2.0733267"
     inkscape:cx="121.5438"
     inkscape:cy="12.781392"
     inkscape:window-width="2560"
     inkscape:window-height="1013"
     inkscape:window-x="1911"
     inkscape:window-y="-9"
     inkscape:window-maximized="1"
     inkscape:current-layer="svg18"
     inkscape:snap-bbox="true"
     inkscape:object-paths="true"
     inkscape:snap-intersection-paths="true"
     inkscape:snap-smooth-nodes="true" />
  <g
     id="g33993"
     style="fill:#023e73;fill-opacity:1;stroke-width:0.78789"
     transform="matrix(1.2692135,0,0,1.2692135,-56.588836,-21.907776)">
    <g
       id="g33978"
       transform="translate(-8)"
       style="fill:#023e73;fill-opacity:1;stroke-width:0.78789">
      <path
         d="m 60.364776,29.311485 h 1.998523 c 1.592039,0 2.405007,0.711338 2.405007,2.10014 v 3.048588 c 0,1.422674 -0.812968,2.100139 -2.405007,2.100139 h -1.998523 z m 4.539009,19.510968 h 4.742252 l -3.38732,-9.315132 c 1.863028,-0.948449 2.811476,-2.642111 2.811476,-5.013235 v -3.082461 c 0,-1.761408 -0.575845,-3.184082 -1.727534,-4.268025 -1.15169,-1.050068 -2.811476,-1.592041 -4.97936,-1.592041 h -6.30041 v 23.270894 h 4.301887 v -8.502175 h 1.761415 z"
         style="font-weight:bold;font-size:22.1347px;font-family:Akhand-Extrabold;-inkscape-font-specification:'Akhand-Extrabold Bold';fill:#023e73;fill-opacity:1;stroke-width:0.787888"
         id="path23904" />
      <path
         d="m 77.131972,39.473447 0.135433,-0.609717 c 0.779087,-3.997039 1.287184,-7.011753 1.490426,-9.111893 0.135433,1.69366 0.609711,4.742249 1.490426,9.111893 l 0.135433,0.609717 z m 5.148735,9.349006 h 4.268021 l -4.97936,-23.270894 h -5.622952 l -4.97936,23.270894 h 4.268021 l 1.151689,-5.690699 h 4.742252 z"
         style="font-weight:bold;font-size:22.1347px;font-family:Akhand-Extrabold;-inkscape-font-specification:'Akhand-Extrabold Bold';fill:#023e73;fill-opacity:1;stroke-width:0.787888"
         id="path23906" />
      <path
         d="M 93.221725,48.822453 V 39.71056 h 5.927807 v -3.759925 h -5.927807 v -6.63915 h 6.605267 V 25.551559 H 88.885957 v 23.270894 z"
         style="font-weight:bold;font-size:22.1347px;font-family:Akhand-Extrabold;-inkscape-font-specification:'Akhand-Extrabold Bold';fill:#023e73;fill-opacity:1;stroke-width:0.787888"
         id="path23908" />
      <path
         d="m 106.90645,39.473447 0.13544,-0.609717 c 0.77908,-3.997039 1.28718,-7.011753 1.49042,-9.111893 0.13544,1.69366 0.60973,4.742249 1.49043,9.111893 l 0.13543,0.609717 z m 5.14872,9.349006 h 4.26802 l -4.97936,-23.270894 h -5.62295 l -4.97936,23.270894 h 4.26802 l 1.15169,-5.690699 h 4.74225 z"
         style="font-weight:bold;font-size:22.1347px;font-family:Akhand-Extrabold;-inkscape-font-specification:'Akhand-Extrabold Bold';fill:#023e73;fill-opacity:1;stroke-width:0.787888"
         id="path23910" />
      <path
         d="m 129.97407,45.0964 h -7.01174 v -6.164924 h 6.0633 V 35.17155 h -6.0633 v -5.860065 h 7.01174 v -3.759926 h -11.31365 v 23.270894 h 11.31365 z"
         style="font-weight:bold;font-size:22.1347px;font-family:Akhand-Extrabold;-inkscape-font-specification:'Akhand-Extrabold Bold';fill:#023e73;fill-opacity:1;stroke-width:0.787888"
         id="path23912" />
      <path
         d="m 143.52336,45.0964 h -6.40204 V 25.551559 h -4.33577 v 23.270894 h 10.73781 z"
         style="font-weight:bold;font-size:22.1347px;font-family:Akhand-Extrabold;-inkscape-font-specification:'Akhand-Extrabold Bold';fill:#023e73;fill-opacity:1;stroke-width:0.787888"
         id="path23914" />
    </g>
    <g
       id="g33970"
       style="fill:#023e73;fill-opacity:1;stroke-width:0.78789">
      <path
         d="m 156.36128,45.0964 h -6.40203 V 25.551559 h -4.33577 v 23.270894 h 10.7378 z"
         style="font-weight:bold;font-size:22.1347px;font-family:Akhand-Extrabold;-inkscape-font-specification:'Akhand-Extrabold Bold';fill:#023e73;fill-opacity:1;stroke-width:0.787888"
         id="path23916" />
      <path
         d="m 171.53647,31.072893 c 0,-1.761408 -0.57584,-3.184082 -1.72753,-4.268025 -1.15169,-1.050068 -2.84536,-1.592041 -5.01324,-1.592041 -2.20175,0 -3.86154,0.541973 -4.97936,1.592041 -1.15169,1.083943 -1.69366,2.506617 -1.69366,4.268025 V 43.30112 c 0,1.79528 0.54197,3.217954 1.69366,4.268024 1.11782,1.083942 2.77761,1.592041 4.97936,1.592041 2.16788,0 3.86155,-0.508099 5.01324,-1.592041 1.15169,-1.05007 1.72753,-2.472744 1.72753,-4.268024 z m -4.3019,12.024987 c 0,1.422676 -0.81295,2.134013 -2.43887,2.134013 -1.59204,0 -2.37113,-0.711337 -2.37113,-2.134013 V 31.276132 c 0,-1.422676 0.77909,-2.134012 2.37113,-2.134012 1.62592,0 2.43887,0.711336 2.43887,2.134012 z"
         style="font-weight:bold;font-size:22.1347px;font-family:Akhand-Extrabold;-inkscape-font-specification:'Akhand-Extrabold Bold';fill:#023e73;fill-opacity:1;stroke-width:0.787888"
         id="path23918" />
      <path
         d="m 180.88546,41.539713 c 0.71134,0.101613 1.32107,0.135495 1.79529,0.135495 1.69366,0 3.01471,-0.508099 3.96316,-1.524295 0.94845,-1.016197 1.42268,-2.438871 1.42268,-4.301898 v -4.437388 c 0,-1.761408 -0.57584,-3.184082 -1.72753,-4.268026 -1.15169,-1.050068 -2.81148,-1.59204 -4.97936,-1.59204 h -6.30043 v 23.270893 h 4.33578 V 29.311485 h 1.93076 c 1.62593,0 2.43888,0.711338 2.43888,2.10014 v 4.572882 c 0,1.287182 -0.67746,1.896899 -1.96464,1.896899 -0.30486,0 -0.60971,-0.03387 -0.91459,-0.101613 z"
         style="font-weight:bold;font-size:22.1347px;font-family:Akhand-Extrabold;-inkscape-font-specification:'Akhand-Extrabold Bold';fill:#023e73;fill-opacity:1;stroke-width:0.787888"
         id="path23920" />
      <path
         d="m 202.25946,45.0964 h -7.01176 v -6.164924 h 6.0633 V 35.17155 h -6.0633 v -5.860065 h 7.01176 v -3.759926 h -11.31365 v 23.270894 h 11.31365 z"
         style="font-weight:bold;font-size:22.1347px;font-family:Akhand-Extrabold;-inkscape-font-specification:'Akhand-Extrabold Bold';fill:#023e73;fill-opacity:1;stroke-width:0.787888"
         id="path23922" />
      <path
         d="m 211.26972,40.015419 c 0.67746,0.440352 1.11782,0.84683 1.3888,1.219435 0.23712,0.406478 0.3726,0.880704 0.3726,1.490422 v 0.474225 c 0,1.422674 -0.81295,2.100138 -2.37111,2.100138 -1.55817,0 -2.30338,-0.677464 -2.30338,-2.100138 v -1.558169 h -4.33578 v 1.727534 c 0,1.79528 0.54198,3.217956 1.65979,4.234152 1.11782,1.050068 2.77761,1.558167 4.97937,1.558167 2.16788,0 3.82767,-0.508099 4.97936,-1.558167 1.15169,-1.016196 1.72753,-2.438872 1.72753,-4.234152 v -0.846829 c 0,-1.219437 -0.27099,-2.269505 -0.74522,-3.15021 -0.47421,-0.846829 -1.2533,-1.625912 -2.30338,-2.33725 l -3.92928,-2.540491 c -0.71134,-0.440352 -1.21944,-0.880703 -1.49042,-1.287181 -0.27099,-0.40648 -0.40649,-0.914577 -0.40649,-1.524295 v -0.508098 c 0,-0.677464 0.13543,-1.185563 0.47423,-1.524295 0.33874,-0.338732 0.91458,-0.541971 1.72754,-0.541971 1.45654,0 2.20176,0.711338 2.20176,2.066266 v 1.524294 h 4.33577 v -1.659787 c 0,-1.795279 -0.54198,-3.217955 -1.62592,-4.268023 -1.08394,-1.016196 -2.74373,-1.558169 -4.91161,-1.558169 -2.20177,0 -3.82767,0.541973 -4.91162,1.558169 -1.08394,1.050068 -1.62592,2.472744 -1.62592,4.268023 v 0.812958 c 0,2.371124 1.05008,4.234149 3.21796,5.622951 z"
         style="font-weight:bold;font-size:22.1347px;font-family:Akhand-Extrabold;-inkscape-font-specification:'Akhand-Extrabold Bold';fill:#023e73;fill-opacity:1;stroke-width:0.787888"
         id="path23924" />
    </g>
  </g>
  <g
     aria-label="DESIGNER GRÃFICO"
     id="Lorem_Ipsun_Dolor"
     style="font-weight:300;font-size:17.007px;font-family:Roboto-Light, Roboto;fill:#0fb2f2;fill-opacity:1;stroke-width:0.748274"
     transform="matrix(1.3364086,0,0,1.3364086,-135.96735,-5.0352165)">
    <path
       d="m 105.04316,37.73892 v 11.326662 h 2.70411 c 0.88437,0 1.56465,-0.221091 2.02384,-0.697287 0.44218,-0.459189 0.68028,-1.071441 0.68028,-1.853763 V 40.28997 c 0,-0.765315 -0.2381,-1.377567 -0.68028,-1.853763 -0.45919,-0.459189 -1.13947,-0.697287 -2.02384,-0.697287 z m 0.85035,10.561347 v -9.796032 h 1.85376 c 1.22451,0 1.85377,0.595245 1.85377,1.785735 v 6.224562 c 0,1.19049 -0.62926,1.785735 -1.85377,1.785735 z"
       style="font-weight:normal;font-family:Akhand-Extralight;-inkscape-font-specification:Akhand-Extralight;fill:#0fb2f2;fill-opacity:1;stroke-width:0.748274"
       id="path23873" />
    <path
       d="m 117.69634,48.300267 h -3.84358 v -4.557876 h 3.35038 v -0.765315 h -3.35038 v -4.472841 h 3.84358 V 37.73892 h -4.69393 v 11.326662 h 4.69393 z"
       style="font-weight:normal;font-family:Akhand-Extralight;-inkscape-font-specification:Akhand-Extralight;fill:#0fb2f2;fill-opacity:1;stroke-width:0.748274"
       id="path23875" />
    <path
       d="m 122.40728,44.354643 c 0.44218,0.306126 0.74831,0.595245 0.95239,0.884364 0.18708,0.289119 0.28912,0.68028 0.30613,1.173483 v 0.221091 c 0,0.578238 -0.17007,1.02042 -0.49321,1.343553 -0.32313,0.34014 -0.79933,0.493203 -1.44559,0.493203 -0.64627,0 -1.13947,-0.153063 -1.4456,-0.493203 -0.30612,-0.323133 -0.45919,-0.765315 -0.45919,-1.343553 v -0.748308 h -0.85035 v 0.748308 c 0,0.782322 0.22109,1.411581 0.69729,1.887777 0.4762,0.476196 1.15648,0.714294 2.05785,0.714294 0.88436,0 1.56464,-0.221091 2.04084,-0.697287 0.47619,-0.476196 0.71429,-1.088448 0.7313,-1.853763 v -0.595245 c 0,-0.867357 -0.54423,-1.666686 -1.63267,-2.414994 l -1.6837,-1.105455 c -0.44218,-0.272112 -0.76531,-0.578238 -0.9694,-0.884364 -0.22109,-0.306126 -0.32313,-0.697287 -0.32313,-1.207497 v -0.306126 c 0,-1.224504 0.61225,-1.836756 1.85376,-1.836756 1.22451,0 1.83676,0.612252 1.83676,1.836756 v 0.595245 h 0.85035 v -0.595245 c 0,-0.765315 -0.2381,-1.394574 -0.68028,-1.87077 -0.44218,-0.476196 -1.12246,-0.731301 -2.00683,-0.731301 -0.90137,0 -1.58165,0.255105 -2.02383,0.731301 -0.44218,0.476196 -0.66327,1.105455 -0.66327,1.87077 v 0.493203 c 0,1.003413 0.54422,1.87077 1.66668,2.585064 z"
       style="font-weight:normal;font-family:Akhand-Extralight;-inkscape-font-specification:Akhand-Extralight;fill:#0fb2f2;fill-opacity:1;stroke-width:0.748274"
       id="path23877" />
    <path
       d="M 127.47535,49.065582 V 37.73892 H 126.625 v 11.326662 z"
       style="font-weight:normal;font-family:Akhand-Extralight;-inkscape-font-specification:Akhand-Extralight;fill:#0fb2f2;fill-opacity:1;stroke-width:0.748274"
       id="path23879" />
    <path
       d="m 130.02638,46.633581 c 0,0.782322 0.20409,1.411581 0.64627,1.887777 0.42517,0.476196 1.07144,0.697287 1.9558,0.697287 0.88437,0 1.54764,-0.272112 1.95581,-0.85035 v 0.697287 h 0.85035 v -5.697345 h -2.26193 v 0.765315 h 1.41158 v 2.500029 c 0,0.561231 -0.17007,1.003413 -0.51021,1.326546 -0.34014,0.34014 -0.81634,0.493203 -1.42859,0.493203 -1.19049,0 -1.76873,-0.595245 -1.76873,-1.819749 v -6.46266 c 0,-1.224504 0.61225,-1.836756 1.85376,-1.836756 1.22451,0 1.85377,0.612252 1.85377,1.836756 v 0.782322 h 0.85035 v -0.782322 c 0,-0.765315 -0.2381,-1.394574 -0.68028,-1.87077 -0.45919,-0.476196 -1.13947,-0.731301 -2.02384,-0.731301 -0.90137,0 -1.58165,0.255105 -2.02383,0.731301 -0.45919,0.476196 -0.68028,1.105455 -0.68028,1.87077 z"
       style="font-weight:normal;font-family:Akhand-Extralight;-inkscape-font-specification:Akhand-Extralight;fill:#0fb2f2;fill-opacity:1;stroke-width:0.748274"
       id="path23881" />
    <path
       d="m 142.74761,49.065582 h 1.12246 V 37.73892 h -0.85035 v 6.46266 c 0,1.768728 0,2.908197 0.034,3.435414 l -1.34355,-3.452421 -2.53404,-6.445653 h -1.10546 v 11.326662 h 0.85035 v -6.428646 c 0,-1.428588 -0.017,-2.585064 -0.051,-3.435414 l 1.34355,3.452421 z"
       style="font-weight:normal;font-family:Akhand-Extralight;-inkscape-font-specification:Akhand-Extralight;fill:#0fb2f2;fill-opacity:1;stroke-width:0.748274"
       id="path23883" />
    <path
       d="m 151.28511,48.300267 h -3.84358 v -4.557876 h 3.35038 v -0.765315 h -3.35038 v -4.472841 h 3.84358 V 37.73892 h -4.69393 v 11.326662 h 4.69393 z"
       style="font-weight:normal;font-family:Akhand-Extralight;-inkscape-font-specification:Akhand-Extralight;fill:#0fb2f2;fill-opacity:1;stroke-width:0.748274"
       id="path23885" />
    <path
       d="m 154.00622,43.589328 v -5.085093 h 1.64968 c 1.22451,0 1.85377,0.595245 1.85377,1.785735 v 1.547637 c 0,1.173483 -0.62926,1.751721 -1.85377,1.751721 z m 4.67693,5.476254 -1.78574,-4.881009 c 0.9694,-0.357147 1.46261,-1.139469 1.46261,-2.346966 V 40.28997 c 0,-0.765315 -0.2381,-1.377567 -0.68028,-1.853763 -0.45919,-0.459189 -1.13947,-0.697287 -2.02384,-0.697287 h -2.50003 v 11.326662 h 0.85035 v -4.676925 h 1.64968 c 0.17007,0 0.30613,0 0.40817,-0.01701 l 1.68369,4.693932 z"
       style="font-weight:normal;font-family:Akhand-Extralight;-inkscape-font-specification:Akhand-Extralight;fill:#0fb2f2;fill-opacity:1;stroke-width:0.748274"
       id="path23887" />
    <path
       d="m 163.80222,46.633581 c 0,0.782322 0.20408,1.411581 0.64626,1.887777 0.42518,0.476196 1.07145,0.697287 1.95581,0.697287 0.88436,0 1.54764,-0.272112 1.9558,-0.85035 v 0.697287 h 0.85035 v -5.697345 h -2.26193 v 0.765315 h 1.41158 v 2.500029 c 0,0.561231 -0.17007,1.003413 -0.51021,1.326546 -0.34014,0.34014 -0.81633,0.493203 -1.42858,0.493203 -1.19049,0 -1.76873,-0.595245 -1.76873,-1.819749 v -6.46266 c 0,-1.224504 0.61225,-1.836756 1.85376,-1.836756 1.22451,0 1.85376,0.612252 1.85376,1.836756 v 0.782322 h 0.85035 v -0.782322 c 0,-0.765315 -0.23809,-1.394574 -0.68028,-1.87077 -0.45918,-0.476196 -1.13946,-0.731301 -2.02383,-0.731301 -0.90137,0 -1.58165,0.255105 -2.02383,0.731301 -0.45919,0.476196 -0.68028,1.105455 -0.68028,1.87077 z"
       style="font-weight:normal;font-family:Akhand-Extralight;-inkscape-font-specification:Akhand-Extralight;fill:#0fb2f2;fill-opacity:1;stroke-width:0.748274"
       id="path23889" />
    <path
       d="m 172.69687,43.589328 v -5.085093 h 1.64968 c 1.2245,0 1.85376,0.595245 1.85376,1.785735 v 1.547637 c 0,1.173483 -0.62926,1.751721 -1.85376,1.751721 z m 4.67693,5.476254 -1.78574,-4.881009 c 0.9694,-0.357147 1.4626,-1.139469 1.4626,-2.346966 V 40.28997 c 0,-0.765315 -0.23809,-1.377567 -0.68028,-1.853763 -0.45919,-0.459189 -1.13947,-0.697287 -2.02383,-0.697287 h -2.50003 v 11.326662 h 0.85035 v -4.676925 h 1.64968 c 0.17007,0 0.30613,0 0.40817,-0.01701 l 1.68369,4.693932 z"
       style="font-weight:normal;font-family:Akhand-Extralight;-inkscape-font-specification:Akhand-Extralight;fill:#0fb2f2;fill-opacity:1;stroke-width:0.748274"
       id="path23891" />
    <path
       d="m 183.12215,35.238891 h -0.93538 l -0.62926,1.785735 h 0.62926 z m -2.70411,9.745011 0.59524,-2.602071 c 0.4762,-2.091861 0.74831,-3.435414 0.83335,-4.013652 l 0.051,0.306126 c 0.034,0.204084 0.11905,0.646266 0.2551,1.309539 0.13606,0.68028 0.30613,1.479609 0.52722,2.397987 l 0.59524,2.602071 z m 3.80957,4.08168 h 0.88436 L 182.45888,37.73892 h -1.22451 l -2.65309,11.326662 h 0.88437 l 0.76531,-3.316365 h 3.23133 z"
       style="font-weight:normal;font-family:Akhand-Extralight;-inkscape-font-specification:Akhand-Extralight;fill:#0fb2f2;fill-opacity:1;stroke-width:0.748274"
       id="path23893" />
    <path
       d="m 187.66301,49.065582 v -5.153121 h 3.29936 v -0.765315 h -3.29936 v -4.642911 h 3.53746 V 37.73892 h -4.38781 v 11.326662 z"
       style="font-weight:normal;font-family:Akhand-Extralight;-inkscape-font-specification:Akhand-Extralight;fill:#0fb2f2;fill-opacity:1;stroke-width:0.748274"
       id="path23895" />
    <path
       d="M 193.66646,49.065582 V 37.73892 h -0.85035 v 11.326662 z"
       style="font-weight:normal;font-family:Akhand-Extralight;-inkscape-font-specification:Akhand-Extralight;fill:#0fb2f2;fill-opacity:1;stroke-width:0.748274"
       id="path23897" />
    <path
       d="m 200.77537,45.919287 v 0.714294 c 0,1.224504 -0.62925,1.836756 -1.85376,1.836756 -1.24151,0 -1.85376,-0.612252 -1.85376,-1.836756 v -6.46266 c 0,-1.224504 0.61225,-1.836756 1.85376,-1.836756 1.22451,0 1.85376,0.612252 1.85376,1.836756 v 0.782322 h 0.85035 v -0.782322 c 0,-0.765315 -0.23809,-1.394574 -0.68028,-1.87077 -0.45918,-0.476196 -1.13946,-0.731301 -2.02383,-0.731301 -0.90137,0 -1.58165,0.255105 -2.02383,0.731301 -0.45919,0.476196 -0.68028,1.105455 -0.68028,1.87077 v 6.46266 c 0,0.782322 0.22109,1.411581 0.68028,1.887777 0.44218,0.476196 1.12246,0.714294 2.02383,0.714294 0.88437,0 1.56465,-0.238098 2.02383,-0.714294 0.44219,-0.476196 0.68028,-1.105455 0.68028,-1.887777 v -0.714294 z"
       style="font-weight:normal;font-family:Akhand-Extralight;-inkscape-font-specification:Akhand-Extralight;fill:#0fb2f2;fill-opacity:1;stroke-width:0.748274"
       id="path23899" />
    <path
       d="m 209.24486,40.170921 c 0,-0.765315 -0.2381,-1.394574 -0.68028,-1.87077 -0.45919,-0.476196 -1.13947,-0.731301 -2.02384,-0.731301 -0.90137,0 -1.58165,0.255105 -2.02383,0.731301 -0.45919,0.476196 -0.68028,1.105455 -0.68028,1.87077 v 6.46266 c 0,0.782322 0.22109,1.411581 0.68028,1.887777 0.44218,0.476196 1.12246,0.714294 2.02383,0.714294 0.88437,0 1.56465,-0.238098 2.02384,-0.714294 0.44218,-0.476196 0.68028,-1.105455 0.68028,-1.887777 z m -0.85035,6.46266 c 0,1.224504 -0.62926,1.836756 -1.85377,1.836756 -1.24151,0 -1.85376,-0.612252 -1.85376,-1.836756 v -6.46266 c 0,-1.224504 0.61225,-1.836756 1.85376,-1.836756 1.22451,0 1.85377,0.612252 1.85377,1.836756 z"
       style="font-weight:normal;font-family:Akhand-Extralight;-inkscape-font-specification:Akhand-Extralight;fill:#0fb2f2;fill-opacity:1;stroke-width:0.748274"
       id="path23901" />
  </g>
</svg>
