<?xml version="1.0" encoding="UTF-8" standalone="no"?>
<svg
   width="221"
   height="65.64"
   viewBox="0 0 221 65.64"
   version="1.1"
   id="svg18"
   sodipodi:docname="meuLogo.svg"
   inkscape:version="1.1 (c68e22c387, 2021-05-23)"
   xmlns:inkscape="http://www.inkscape.org/namespaces/inkscape"
   xmlns:sodipodi="http://sodipodi.sourceforge.net/DTD/sodipodi-0.dtd"
   xmlns="http://www.w3.org/2000/svg"
   xmlns:svg="http://www.w3.org/2000/svg">
  <defs
     id="defs22" />
  <sodipodi:namedview
     id="namedview20"
     pagecolor="#ffffff"
     bordercolor="#666666"
     borderopacity="1.0"
     inkscape:pageshadow="2"
     inkscape:pageopacity="0.0"
     inkscape:pagecheckerboard="0"
     showgrid="false"
     inkscape:zoom="5.8642534"
     inkscape:cx="122.60725"
     inkscape:cy="32.484954"
     inkscape:window-width="2560"
     inkscape:window-height="1013"
     inkscape:window-x="1911"
     inkscape:window-y="-9"
     inkscape:window-maximized="1"
     inkscape:current-layer="svg18" />
  <g
     id="g3682"
     transform="matrix(1.5148404,0,0,1.5148404,-54.654431,-53.397319)"
     style="stroke-width:0.660136">
    <g
       transform="matrix(0.0893894,0,0,0.0893894,-17.402048,16.675759)"
       id="g60"
       style="clip-rule:evenodd;fill-rule:evenodd;stroke-width:0.660136;stroke-linejoin:round;stroke-miterlimit:2">
      <path
         d="m 1060.53,220.986 c 93.98,0 170.17,76.179 170.17,170.157 0,80.509 -55.92,147.944 -131,165.644 l 131.01,131.072 h -33.02 l -131,-131.072 c 75.08,-17.7 130.98,-85.135 130.98,-165.644 0,-93.978 -76.17,-170.157 -170.18,-170.157 z m -141.415,385.14 v 81.733 H 886.092 V 573.099 Z M 1044.01,431.461 c -5.1,2.084 -10.67,3.233 -16.52,3.233 -24.09,0 -43.623,-19.53 -43.623,-43.612 0,-24.12 19.533,-43.638 43.623,-43.638 5.85,0 11.42,1.148 16.52,3.232 -15.91,6.505 -27.12,22.135 -27.12,40.406 0,18.242 11.21,33.872 27.12,40.379 z"
         style="fill:#f2636f;fill-rule:nonzero;stroke-width:0.660136"
         id="path58" />
    </g>
    <g
       transform="matrix(1.10564,0,0,1.10564,73.550952,59.059769)"
       id="g64"
       style="clip-rule:evenodd;fill-rule:evenodd;stroke-width:0.660136;stroke-linejoin:round;stroke-miterlimit:2">
      <path
         d="m 0,-3.19 c -1.948,0 -3.527,-1.579 -3.527,-3.526 0,-1.95 1.579,-3.528 3.527,-3.528 1.949,0 3.527,1.578 3.527,3.528 0,1.947 -1.578,3.526 -3.527,3.526 M 3.169,6.681 C 9.239,5.25 13.759,-0.202 13.759,-6.711 13.759,-14.309 7.6,-20.468 0,-20.468 h -21.656 v 37.746 h 10.224 V 6.546 L -0.701,17.278 H 13.76 Z"
         style="fill:#0fb2f2;fill-rule:nonzero;stroke-width:0.660136"
         id="path62" />
    </g>
  </g>
  <g
     id="g3768"
     transform="translate(0,-1.0296247)">
    <text
       id="LOGOMARCA"
       font-size="15.673px"
       font-family="Roboto-Black, Roboto"
       font-weight="800"
       x="104.1787"
       y="31.032492"
       style="stroke-width:1"><tspan
         x="104.1787"
         y="31.032492"
         id="tspan10"
         style="stroke-width:1">RAFAELLOPES</tspan></text>
    <text
       id="Lorem_Ipsun_Dolor"
       data-name="Lorem Ipsun Dolor"
       fill="#525252"
       font-size="12px"
       font-family="Roboto-Light, Roboto"
       font-weight="300"
       x="104"
       y="49"><tspan
         x="104"
         y="49"
         id="tspan13">DESIGNERGRÁFICO</tspan></text>
  </g>
</svg>
