<?xml version="1.0" encoding="UTF-8" standalone="no"?>
<svg
   width="100%"
   height="100%"
   viewBox="0 0 221 66"
   version="1.1"
   xml:space="preserve"
   style="fill-rule:evenodd;clip-rule:evenodd;stroke-linejoin:round;stroke-miterlimit:2;"
   id="svg68"
   sodipodi:docname="rafaellopes.svg"
   inkscape:version="1.1 (c68e22c387, 2021-05-23)"
   xmlns:inkscape="http://www.inkscape.org/namespaces/inkscape"
   xmlns:sodipodi="http://sodipodi.sourceforge.net/DTD/sodipodi-0.dtd"
   xmlns="http://www.w3.org/2000/svg"
   xmlns:svg="http://www.w3.org/2000/svg"><defs
   id="defs72" /><sodipodi:namedview
   id="namedview70"
   pagecolor="#ffffff"
   bordercolor="#666666"
   borderopacity="1.0"
   inkscape:pageshadow="2"
   inkscape:pageopacity="0.0"
   inkscape:pagecheckerboard="0"
   showgrid="false"
   inkscape:zoom="5.8642534"
   inkscape:cx="115.18943"
   inkscape:cy="17.478781"
   inkscape:window-width="1920"
   inkscape:window-height="1051"
   inkscape:window-x="-9"
   inkscape:window-y="-9"
   inkscape:window-maximized="1"
   inkscape:current-layer="svg68"
   inkscape:lockguides="false" />
    <g
   id="g66">
        <g
   transform="matrix(2.73607,0,0,2.73607,-751.096,-1958.91)"
   id="g24">
            <path
   d="m 295.956,721.779 h 0.708 c 0.568,0 0.852,0.248 0.852,0.744 v 1.08 c 0,0.496 -0.284,0.744 -0.852,0.744 h -0.708 z m 1.608,6.912 h 1.68 l -1.2,-3.3 c 0.664,-0.344 0.996,-0.936 0.996,-1.776 v -1.092 c 0,-0.632 -0.202,-1.136 -0.606,-1.512 -0.404,-0.376 -0.994,-0.564 -1.77,-0.564 h -2.232 v 8.244 h 1.524 v -3.012 h 0.624 z"
   style="fill:#0fb2f2;fill-rule:nonzero"
   id="path2" />
            <path
   d="m 301.896,725.379 0.048,-0.216 c 0.28,-1.416 0.456,-2.492 0.528,-3.228 0.048,0.6 0.224,1.676 0.528,3.228 l 0.048,0.216 z m 1.824,3.312 h 1.512 l -1.764,-8.244 h -1.992 l -1.764,8.244 h 1.512 l 0.408,-2.016 h 1.68 z"
   style="fill:#0fb2f2;fill-rule:nonzero"
   id="path4" />
            <path
   d="m 307.596,728.691 v -3.228 h 2.1 v -1.332 h -2.1 v -2.352 h 2.34 v -1.332 h -3.876 v 8.244 z"
   style="fill:#0fb2f2;fill-rule:nonzero"
   id="path6" />
            <path
   d="m 312.444,725.379 0.048,-0.216 c 0.28,-1.416 0.456,-2.492 0.528,-3.228 0.048,0.6 0.224,1.676 0.528,3.228 l 0.048,0.216 z m 1.824,3.312 h 1.512 l -1.764,-8.244 h -1.992 l -1.764,8.244 h 1.512 l 0.408,-2.016 h 1.68 z"
   style="fill:#0fb2f2;fill-rule:nonzero"
   id="path8" />
            <path
   d="m 320.616,727.371 h -2.484 v -2.184 h 2.148 v -1.332 h -2.148 v -2.076 h 2.484 v -1.332 h -4.008 v 8.244 h 4.008 z"
   style="fill:#0fb2f2;fill-rule:nonzero"
   id="path10" />
            <path
   d="m 325.416,727.371 h -2.268 v -6.924 h -1.536 v 8.244 h 3.804 z"
   style="fill:#0fb2f2;fill-rule:nonzero"
   id="path12" />
            <path
   d="m 331.848,727.371 h -2.268 v -6.924 h -1.536 v 8.244 h 3.804 z"
   style="fill:#0fb2f2;fill-rule:nonzero"
   id="path14" />
            <path
   d="m 337.224,722.403 c 0,-0.632 -0.204,-1.136 -0.612,-1.512 -0.408,-0.376 -1,-0.564 -1.776,-0.564 -0.776,0 -1.364,0.188 -1.764,0.564 -0.4,0.376 -0.6,0.88 -0.6,1.512 v 4.332 c 0,0.632 0.2,1.136 0.6,1.512 0.4,0.376 0.988,0.564 1.764,0.564 0.776,0 1.368,-0.188 1.776,-0.564 0.408,-0.376 0.612,-0.88 0.612,-1.512 z m -1.524,4.26 c 0,0.504 -0.288,0.756 -0.864,0.756 -0.56,0 -0.84,-0.252 -0.84,-0.756 v -4.188 c 0,-0.504 0.28,-0.756 0.84,-0.756 0.576,0 0.864,0.252 0.864,0.756 z"
   style="fill:#0fb2f2;fill-rule:nonzero"
   id="path16" />
            <path
   d="m 340.536,726.111 c 0.256,0.032 0.468,0.048 0.636,0.048 0.608,0 1.078,-0.18 1.41,-0.54 0.332,-0.36 0.498,-0.868 0.498,-1.524 v -1.572 c 0,-0.632 -0.202,-1.136 -0.606,-1.512 -0.404,-0.376 -0.994,-0.564 -1.77,-0.564 h -2.232 v 8.244 h 1.536 v -6.912 h 0.684 c 0.576,0 0.864,0.248 0.864,0.744 v 1.62 c 0,0.448 -0.232,0.672 -0.696,0.672 -0.104,0 -0.212,-0.012 -0.324,-0.036 z"
   style="fill:#0fb2f2;fill-rule:nonzero"
   id="path18" />
            <path
   d="m 348.108,727.371 h -2.484 v -2.184 h 2.148 v -1.332 h -2.148 v -2.076 h 2.484 v -1.332 H 344.1 v 8.244 h 4.008 z"
   style="fill:#0fb2f2;fill-rule:nonzero"
   id="path20" />
            <path
   d="m 351.3,725.571 c 0.24,0.152 0.404,0.296 0.492,0.432 0.088,0.136 0.132,0.312 0.132,0.528 v 0.168 c 0,0.496 -0.28,0.744 -0.84,0.744 -0.544,0 -0.816,-0.248 -0.816,-0.744 v -0.552 h -1.536 v 0.612 c 0,0.632 0.198,1.132 0.594,1.5 0.396,0.368 0.982,0.552 1.758,0.552 0.776,0 1.366,-0.184 1.77,-0.552 0.404,-0.368 0.606,-0.868 0.606,-1.5 v -0.3 c 0,-0.44 -0.086,-0.812 -0.258,-1.116 -0.172,-0.304 -0.446,-0.58 -0.822,-0.828 l -1.392,-0.9 c -0.248,-0.16 -0.422,-0.314 -0.522,-0.462 -0.1,-0.148 -0.15,-0.326 -0.15,-0.534 v -0.18 c 0,-0.24 0.058,-0.422 0.174,-0.546 0.116,-0.124 0.318,-0.186 0.606,-0.186 0.52,0 0.78,0.244 0.78,0.732 v 0.54 h 1.536 v -0.588 c 0,-0.64 -0.192,-1.144 -0.576,-1.512 -0.384,-0.368 -0.964,-0.552 -1.74,-0.552 -0.776,0 -1.356,0.184 -1.74,0.552 -0.384,0.368 -0.576,0.872 -0.576,1.512 v 0.288 c 0,0.832 0.38,1.496 1.14,1.992 z"
   style="fill:#0fb2f2;fill-rule:nonzero"
   id="path22" />
        </g>
        <g
   transform="matrix(1.6663,0,0,1.71872,-436.583,-1198.93)"
   id="g56">
            <path
   d="m 294.708,720.699 v 7.992 h 1.908 c 0.632,0 1.108,-0.164 1.428,-0.492 0.32,-0.328 0.48,-0.764 0.48,-1.308 v -4.392 c 0,-0.544 -0.16,-0.98 -0.48,-1.308 -0.32,-0.328 -0.796,-0.492 -1.428,-0.492 z m 0.6,7.452 v -6.912 h 1.308 c 0.872,0 1.308,0.42 1.308,1.26 v 4.392 c 0,0.84 -0.436,1.26 -1.308,1.26 z"
   style="fill:#f2636f;fill-rule:nonzero"
   id="path26" />
            <path
   d="m 305.196,728.151 h -2.712 v -3.216 h 2.364 v -0.54 h -2.364 v -3.156 h 2.712 v -0.54 h -3.312 v 7.992 h 3.312 z"
   style="fill:#f2636f;fill-rule:nonzero"
   id="path28" />
            <path
   d="m 310.08,725.367 c 0.312,0.208 0.536,0.414 0.672,0.618 0.136,0.204 0.208,0.482 0.216,0.834 v 0.156 c 0,0.4 -0.114,0.716 -0.342,0.948 -0.228,0.232 -0.57,0.348 -1.026,0.348 -0.456,0 -0.794,-0.116 -1.014,-0.348 -0.22,-0.232 -0.33,-0.548 -0.33,-0.948 v -0.528 h -0.6 v 0.528 c 0,0.544 0.166,0.986 0.498,1.326 0.332,0.34 0.814,0.51 1.446,0.51 0.624,0 1.104,-0.166 1.44,-0.498 0.336,-0.332 0.508,-0.766 0.516,-1.302 v -0.42 c 0,-0.616 -0.384,-1.184 -1.152,-1.704 l -1.188,-0.78 c -0.304,-0.2 -0.532,-0.408 -0.684,-0.624 -0.152,-0.216 -0.228,-0.5 -0.228,-0.852 v -0.216 c 0,-0.864 0.436,-1.296 1.308,-1.296 0.864,0 1.296,0.432 1.296,1.296 v 0.42 h 0.6 v -0.42 c 0,-0.544 -0.158,-0.986 -0.474,-1.326 -0.316,-0.34 -0.79,-0.51 -1.422,-0.51 -0.632,0 -1.106,0.17 -1.422,0.51 -0.316,0.34 -0.474,0.782 -0.474,1.326 v 0.348 c 0,0.704 0.392,1.312 1.176,1.824 z"
   style="fill:#f2636f;fill-rule:nonzero"
   id="path30" />
            <rect
   x="314.616"
   y="720.69897"
   width="0.60000002"
   height="7.9920001"
   style="fill:#f2636f;fill-rule:nonzero"
   id="rect32" />
            <path
   d="m 318.576,726.975 c 0,0.552 0.152,0.994 0.456,1.326 0.304,0.332 0.764,0.498 1.38,0.498 0.632,0 1.092,-0.2 1.38,-0.6 v 0.492 h 0.6 v -4.02 h -1.596 v 0.54 h 0.996 v 1.764 c 0,0.392 -0.118,0.704 -0.354,0.936 -0.236,0.232 -0.574,0.348 -1.014,0.348 -0.832,0 -1.248,-0.428 -1.248,-1.284 v -4.56 c 0,-0.864 0.436,-1.296 1.308,-1.296 0.872,0 1.308,0.432 1.308,1.296 v 0.552 h 0.6 v -0.552 c 0,-0.544 -0.16,-0.986 -0.48,-1.326 -0.32,-0.34 -0.796,-0.51 -1.428,-0.51 -0.632,0 -1.108,0.17 -1.428,0.51 -0.32,0.34 -0.48,0.782 -0.48,1.326 z"
   style="fill:#f2636f;fill-rule:nonzero"
   id="path34" />
            <path
   d="m 329.112,728.691 h 0.792 v -7.992 h -0.6 v 4.56 c 0,1.24 0.008,2.048 0.024,2.424 l -0.948,-2.436 -1.788,-4.548 h -0.78 v 7.992 h 0.6 v -4.536 c 0,-1.016 -0.012,-1.824 -0.036,-2.424 l 0.948,2.436 z"
   style="fill:#f2636f;fill-rule:nonzero"
   id="path36" />
            <path
   d="m 336.696,728.151 h -2.712 v -3.216 h 2.364 v -0.54 h -2.364 v -3.156 h 2.712 v -0.54 h -3.312 v 7.992 h 3.312 z"
   style="fill:#f2636f;fill-rule:nonzero"
   id="path38" />
            <path
   d="m 340.176,724.827 v -3.588 h 1.164 c 0.872,0 1.308,0.42 1.308,1.26 v 1.092 c 0,0.824 -0.436,1.236 -1.308,1.236 z m 3.3,3.864 -1.26,-3.444 c 0.688,-0.256 1.032,-0.808 1.032,-1.656 v -1.092 c 0,-0.544 -0.16,-0.98 -0.48,-1.308 -0.32,-0.328 -0.796,-0.492 -1.428,-0.492 h -1.764 v 7.992 h 0.6 v -3.3 h 1.164 c 0.128,0 0.224,-0.004 0.288,-0.012 l 1.188,3.312 z"
   style="fill:#f2636f;fill-rule:nonzero"
   id="path40" />
            <path
   d="m 350.208,726.975 c 0,0.552 0.152,0.994 0.456,1.326 0.304,0.332 0.764,0.498 1.38,0.498 0.632,0 1.092,-0.2 1.38,-0.6 v 0.492 h 0.6 v -4.02 h -1.596 v 0.54 h 0.996 v 1.764 c 0,0.392 -0.118,0.704 -0.354,0.936 -0.236,0.232 -0.574,0.348 -1.014,0.348 -0.832,0 -1.248,-0.428 -1.248,-1.284 v -4.56 c 0,-0.864 0.436,-1.296 1.308,-1.296 0.872,0 1.308,0.432 1.308,1.296 v 0.552 h 0.6 v -0.552 c 0,-0.544 -0.16,-0.986 -0.48,-1.326 -0.32,-0.34 -0.796,-0.51 -1.428,-0.51 -0.632,0 -1.108,0.17 -1.428,0.51 -0.32,0.34 -0.48,0.782 -0.48,1.326 z"
   style="fill:#f2636f;fill-rule:nonzero"
   id="path42" />
            <path
   d="m 358.044,724.827 v -3.588 h 1.164 c 0.872,0 1.308,0.42 1.308,1.26 v 1.092 c 0,0.824 -0.436,1.236 -1.308,1.236 z m 3.3,3.864 -1.26,-3.444 c 0.688,-0.256 1.032,-0.808 1.032,-1.656 v -1.092 c 0,-0.544 -0.16,-0.98 -0.48,-1.308 -0.32,-0.328 -0.796,-0.492 -1.428,-0.492 h -1.764 v 7.992 h 0.6 v -3.3 h 1.164 c 0.128,0 0.224,-0.004 0.288,-0.012 l 1.188,3.312 z"
   style="fill:#f2636f;fill-rule:nonzero"
   id="path44" />
            <path
   d="m 366.96,718.935 h -0.66 l -0.444,1.26 h 0.444 z m -1.908,6.876 0.42,-1.836 c 0.336,-1.48 0.532,-2.424 0.588,-2.832 l 0.036,0.216 c 0.024,0.144 0.084,0.452 0.18,0.924 0.096,0.472 0.22,1.036 0.372,1.692 l 0.42,1.836 z m 2.688,2.88 h 0.624 l -1.872,-7.992 h -0.864 l -1.872,7.992 h 0.624 l 0.54,-2.34 h 2.28 z"
   style="fill:#f2636f;fill-rule:nonzero"
   id="path46" />
            <path
   d="m 371.724,728.691 v -3.636 h 2.328 v -0.54 h -2.328 v -3.276 h 2.496 v -0.54 h -3.096 v 7.992 z"
   style="fill:#f2636f;fill-rule:nonzero"
   id="path48" />
            <rect
   x="376.92001"
   y="720.69897"
   width="0.60000002"
   height="7.9920001"
   style="fill:#f2636f;fill-rule:nonzero"
   id="rect50" />
            <path
   d="m 384.096,726.471 v 0.504 c 0,0.864 -0.436,1.296 -1.308,1.296 -0.872,0 -1.308,-0.432 -1.308,-1.296 v -4.56 c 0,-0.864 0.436,-1.296 1.308,-1.296 0.872,0 1.308,0.432 1.308,1.296 v 0.552 h 0.6 v -0.552 c 0,-0.544 -0.16,-0.986 -0.48,-1.326 -0.32,-0.34 -0.796,-0.51 -1.428,-0.51 -0.632,0 -1.108,0.17 -1.428,0.51 -0.32,0.34 -0.48,0.782 -0.48,1.326 v 4.56 c 0,0.544 0.16,0.986 0.48,1.326 0.32,0.34 0.796,0.51 1.428,0.51 0.632,0 1.108,-0.17 1.428,-0.51 0.32,-0.34 0.48,-0.782 0.48,-1.326 v -0.504 z"
   style="fill:#f2636f;fill-rule:nonzero"
   id="path52" />
            <path
   d="m 391.632,722.415 c 0,-0.544 -0.16,-0.986 -0.48,-1.326 -0.32,-0.34 -0.796,-0.51 -1.428,-0.51 -0.632,0 -1.108,0.17 -1.428,0.51 -0.32,0.34 -0.48,0.782 -0.48,1.326 v 4.56 c 0,0.544 0.16,0.986 0.48,1.326 0.32,0.34 0.796,0.51 1.428,0.51 0.632,0 1.108,-0.17 1.428,-0.51 0.32,-0.34 0.48,-0.782 0.48,-1.326 z m -0.6,4.56 c 0,0.864 -0.436,1.296 -1.308,1.296 -0.872,0 -1.308,-0.432 -1.308,-1.296 v -4.56 c 0,-0.864 0.436,-1.296 1.308,-1.296 0.872,0 1.308,0.432 1.308,1.296 z"
   style="fill:#f2636f;fill-rule:nonzero"
   id="path54" />
        </g>
        <g
   transform="matrix(0.0893894,0,0,0.0893894,-62.0039,-7.80051)"
   id="g60">
            <path
   d="m 1060.53,220.986 c 93.98,0 170.17,76.179 170.17,170.157 0,80.509 -55.92,147.944 -131,165.644 l 131.01,131.072 h -33.02 l -131,-131.072 c 75.08,-17.7 130.98,-85.135 130.98,-165.644 0,-93.978 -76.17,-170.157 -170.18,-170.157 z m -141.415,385.14 v 81.733 H 886.092 V 573.099 Z M 1044.01,431.461 c -5.1,2.084 -10.67,3.233 -16.52,3.233 -24.09,0 -43.623,-19.53 -43.623,-43.612 0,-24.12 19.533,-43.638 43.623,-43.638 5.85,0 11.42,1.148 16.52,3.232 -15.91,6.505 -27.12,22.135 -27.12,40.406 0,18.242 11.21,33.872 27.12,40.379 z"
   style="fill:#f2636f;fill-rule:nonzero"
   id="path58" />
        </g>
        <g
   transform="matrix(1.10564,0,0,1.10564,28.9491,34.5835)"
   id="g64">
            <path
   d="m 0,-3.19 c -1.948,0 -3.527,-1.579 -3.527,-3.526 0,-1.95 1.579,-3.528 3.527,-3.528 1.949,0 3.527,1.578 3.527,3.528 0,1.947 -1.578,3.526 -3.527,3.526 M 3.169,6.681 C 9.239,5.25 13.759,-0.202 13.759,-6.711 13.759,-14.309 7.6,-20.468 0,-20.468 h -21.656 v 37.746 h 10.224 V 6.546 L -0.701,17.278 H 13.76 Z"
   style="fill:#0fb2f2;fill-rule:nonzero"
   id="path62" />
        </g>
    </g>
</svg>
