<?xml version="1.0" encoding="UTF-8" standalone="no"?>
<!DOCTYPE svg PUBLIC "-//W3C//DTD SVG 1.1//EN" "http://www.w3.org/Graphics/SVG/1.1/DTD/svg11.dtd">
<svg width="100%" height="100%" viewBox="0 0 100 100" version="1.1" xmlns="http://www.w3.org/2000/svg" xmlns:xlink="http://www.w3.org/1999/xlink" xml:space="preserve" xmlns:serif="http://www.serif.com/" style="fill-rule:evenodd;clip-rule:evenodd;stroke-linejoin:round;stroke-miterlimit:2;">
    <g transform="matrix(1.11765,0,0,1.11765,-12.0294,-28.7941)">
        <circle cx="55.5" cy="70.5" r="42.5" style="fill:white;"/>
    </g>
    <g transform="matrix(0.0518019,0,0,0.0518019,-100.892,23.1991)">
        <g id="g4127" transform="matrix(9.01794,0,0,9.01794,1834.89,-291.121)">
            <path id="path4125" d="M117.297,8.476L121.776,8.476C149.054,8.476 171.014,30.436 171.014,57.714L171.014,89.445C171.014,116.723 149.054,138.684 121.776,138.684L117.297,138.684C90.019,138.684 68.058,116.723 68.058,89.445L68.058,57.714C68.058,30.436 90.019,8.476 117.297,8.476Z" style="fill:rgb(58,77,92);fill-rule:nonzero;"/>
        </g>
        <g id="g4131" transform="matrix(9.01794,0,0,9.01794,1834.89,-291.121)">
            <path id="path4129" d="M75.72,90.628L163.705,90.628C170.626,90.628 176.199,96.2 176.199,103.122C176.199,110.043 170.626,115.615 163.705,115.615L75.72,115.615C68.798,115.615 63.226,110.043 63.226,103.122C63.226,96.2 68.798,90.628 75.72,90.628Z" style="fill:rgb(239,147,126);fill-rule:nonzero;"/>
        </g>
        <g id="g4135" transform="matrix(9.01794,0,0,9.01794,1834.89,-291.121)">
            <path id="path4133" d="M119.536,11.462C145.563,11.462 166.516,32.415 166.516,58.442L166.516,88.717C166.516,114.744 145.563,135.697 119.536,135.697C93.509,135.697 72.557,114.744 72.557,88.717L72.557,58.442C72.557,32.415 93.509,11.462 119.536,11.462Z" style="fill:rgb(58,77,92);fill-rule:nonzero;"/>
        </g>
        <g id="g4147" transform="matrix(9.01794,0,0,9.01794,1834.89,-291.121)">
            <path id="path4145" d="M72.024,102.686L167.4,102.686C169.837,102.686 171.799,104.648 171.799,107.085C171.799,109.523 169.837,111.485 167.4,111.485L72.024,111.485C69.587,111.485 67.625,109.523 67.625,107.085C67.625,104.648 69.587,102.686 72.024,102.686Z" style="fill:rgb(234,115,88);fill-rule:nonzero;"/>
        </g>
        <g id="g4151" transform="matrix(9.01794,0,0,9.01794,1834.89,-291.121)">
            <path id="path4149" d="M119.536,20.965C144.393,20.965 164.404,40.976 164.404,65.833L164.404,118.984C164.404,143.841 144.393,163.852 119.536,163.852C94.679,163.852 74.668,143.841 74.668,118.984L74.668,65.833C74.668,40.976 94.679,20.965 119.536,20.965Z" style="fill:rgb(248,192,157);fill-rule:nonzero;"/>
        </g>
        <g id="g4155" transform="matrix(9.01794,0,0,9.01794,1834.89,-291.121)">
            <path id="path4153" d="M119.536,90.708C133.475,90.708 144.696,101.93 144.696,115.868L144.696,145.672C144.696,159.611 133.475,170.832 119.536,170.832C105.598,170.832 94.377,159.611 94.377,145.672L94.377,115.868C94.377,101.93 105.598,90.708 119.536,90.708Z" style="fill:rgb(248,192,157);fill-rule:nonzero;"/>
        </g>
        <g id="g4159" transform="matrix(9.01794,0,0,9.01794,1834.89,-291.121)">
            <path id="path4157" d="M119.536,20.965C105.124,20.965 92.342,27.693 84.144,38.191C84.313,38.325 84.483,38.459 84.654,38.591C84.137,38.861 83.637,39.166 83.16,39.503C81.476,41.83 80.01,44.327 78.793,46.964C80.671,45.286 82.882,44.023 85.282,43.258C84.574,44.531 84.081,45.911 83.823,47.344C85.731,45.327 88.082,43.78 90.689,42.827C98.986,47.692 109.118,50.335 119.536,50.352C130.221,50.325 140.593,47.537 148.988,42.433C153.159,42.576 157.152,44.173 160.271,46.946C159.049,44.302 157.577,41.799 155.886,39.466C155.427,39.149 154.95,38.862 154.455,38.605C154.618,38.472 154.779,38.339 154.938,38.204C146.741,27.698 133.954,20.965 119.536,20.965Z" style="fill:rgb(239,147,126);fill-rule:nonzero;"/>
        </g>
        <g id="g4163" transform="matrix(9.01794,0,0,9.01794,1834.89,-291.121)">
            <path id="path4161" d="M119.536,18.501C104.974,18.501 92.078,25.371 83.892,36.058C92.95,43.9 105.925,48.399 119.536,48.416C133.148,48.402 146.124,43.905 155.186,36.063C146.999,25.373 134.101,18.501 119.536,18.501Z" style="fill:rgb(58,77,92);fill-rule:nonzero;"/>
        </g>
        <g id="g4167" transform="matrix(9.01794,0,0,9.01794,1834.89,-291.121)">
            <path id="path4165" d="M90.676,35.184C84.289,35.19 78.774,39.822 77.664,46.112C81.039,42.524 85.75,40.482 90.676,40.474C95.605,40.478 100.319,42.517 103.698,46.105C102.585,39.814 97.065,35.185 90.676,35.184Z" style="fill:rgb(58,77,92);fill-rule:nonzero;"/>
        </g>
        <g id="g4171" transform="matrix(9.01794,0,0,9.01794,1834.89,-291.121)">
            <path id="path4169" d="M148.404,35.184C154.791,35.19 160.306,39.822 161.416,46.112C158.041,42.524 153.33,40.482 148.404,40.474C143.475,40.478 138.761,42.517 135.382,46.105C136.496,39.814 142.015,35.185 148.404,35.184Z" style="fill:rgb(58,77,92);fill-rule:nonzero;"/>
        </g>
        <g id="g4175" transform="matrix(9.01794,0,0,9.01794,1834.89,-291.121)">
            <path id="path4173" d="M96.835,34.48C90.448,34.486 84.933,39.118 83.823,45.408C87.198,41.82 91.909,39.778 96.835,39.77C101.764,39.774 106.478,41.813 109.857,45.401C108.744,39.11 103.224,34.481 96.835,34.48Z" style="fill:rgb(58,77,92);fill-rule:nonzero;"/>
        </g>
        <g id="g4179" transform="matrix(9.01794,0,0,9.01794,1834.89,-291.121)">
            <path id="path4177" d="M152.892,97.289L152.892,104.257L129.001,104.257C127.092,104.257 125.554,102.736 125.521,100.836L125.517,100.836L125.517,97.289L152.892,97.289Z" style="fill:rgb(239,147,126);fill-rule:nonzero;"/>
        </g>
        <g id="g4183" transform="matrix(9.01794,0,0,9.01794,1834.89,-291.121)">
            <path id="path4181" d="M148.654,94.199C151.002,94.199 152.892,95.812 152.892,97.815C152.892,97.829 152.889,97.841 152.889,97.855L152.892,97.855L152.892,101.431L129.539,101.431C127.191,101.431 125.301,99.819 125.301,97.815C125.301,95.812 127.191,94.199 129.539,94.199L148.654,94.199Z" style="fill:rgb(58,77,92);fill-rule:nonzero;"/>
        </g>
        <g id="g4187" transform="matrix(11.8748,0,0,11.8748,1421.21,-984.351)">
            <path id="path4185" d="M143.479,140.294C143.479,142.16 141.944,143.695 140.078,143.695C138.211,143.695 136.676,142.16 136.676,140.294C136.676,138.427 138.211,136.892 140.078,136.892C141.944,136.892 143.479,138.427 143.479,140.294Z" style="fill:rgb(58,77,92);fill-rule:nonzero;"/>
        </g>
        <g id="g4191" transform="matrix(11.8748,0,0,11.8748,1421.21,-984.351)">
            <path id="path4189" d="M144.281,140.427C144.281,141.047 143.771,141.557 143.151,141.557C142.531,141.557 142.021,141.047 142.021,140.427C142.021,139.807 142.531,139.297 143.151,139.297C143.771,139.297 144.281,139.807 144.281,140.427Z" style="fill:rgb(248,192,157);fill-rule:nonzero;"/>
        </g>
        <g id="g4195" transform="matrix(9.01794,0,0,9.01794,1834.89,-291.121)">
            <path id="path4193" d="M74.783,113.884C74.783,113.884 74.739,114.019 74.668,114.24L74.668,118.984C74.668,135.911 83.949,150.588 97.719,158.232C102.055,165.772 110.18,170.831 119.536,170.831C119.626,170.831 119.716,170.827 119.806,170.826L119.578,129.313C119.578,129.313 95.936,135.037 91.457,132.797C86.977,130.558 74.783,113.884 74.783,113.884Z" style="fill:rgb(247,184,144);fill-rule:nonzero;"/>
        </g>
        <g id="g4199" transform="matrix(9.01794,0,0,9.01794,1834.89,-291.121)">
            <path id="path4197" d="M164.289,113.884C164.289,113.884 164.334,114.019 164.404,114.24L164.404,118.984C164.404,135.911 155.123,150.588 141.353,158.232C137.018,165.772 128.893,170.831 119.537,170.831C119.446,170.831 119.357,170.827 119.266,170.826L119.494,129.313C119.494,129.313 143.136,135.037 147.616,132.797C152.095,130.558 164.289,113.884 164.289,113.884Z" style="fill:rgb(247,184,144);fill-rule:nonzero;"/>
        </g>
        <g id="g4203" transform="matrix(9.01794,0,0,9.01794,1834.89,-291.121)">
            <path id="path4201" d="M127.347,124.536C127.347,128.917 123.742,132.523 119.36,132.523C114.979,132.523 111.374,128.917 111.374,124.536C111.374,120.155 114.979,116.55 119.36,116.55C123.742,116.55 127.347,120.155 127.347,124.536Z" style="fill:rgb(244,162,111);fill-rule:nonzero;"/>
        </g>
        <g id="g4207" transform="matrix(9.01794,0,0,9.01794,1834.89,-291.121)">
            <path id="path4205" d="M117.182,107.014L121.538,107.014C123.449,107.014 124.987,108.552 124.987,110.463L124.987,121.717C124.987,123.627 123.449,125.165 121.538,125.165L117.182,125.165C115.272,125.165 113.733,123.627 113.733,121.717L113.733,110.463C113.733,108.552 115.272,107.014 117.182,107.014Z" style="fill:rgb(239,147,126);fill-rule:nonzero;"/>
        </g>
        <g id="g4211" transform="matrix(9.01794,0,0,9.01794,1834.89,-291.121)">
            <path id="path4209" d="M127.347,122.08C127.347,126.461 123.742,130.066 119.36,130.066C114.979,130.066 111.374,126.461 111.374,122.08C111.374,117.698 114.979,114.093 119.36,114.093C123.742,114.093 127.347,117.698 127.347,122.08Z" style="fill:rgb(239,147,126);fill-rule:nonzero;"/>
        </g>
        <g id="g4215" transform="matrix(9.01794,0,0,9.01794,1834.89,-291.121)">
            <path id="path4213" d="M136.781,140.286C136.781,147.147 129.139,152.709 119.712,152.709C110.285,152.709 102.643,147.147 102.643,140.286C102.643,133.424 110.285,140.901 119.712,140.901C129.139,140.901 136.781,133.424 136.781,140.286Z" style="fill:rgb(244,162,111);fill-rule:nonzero;"/>
        </g>
        <g id="g4219" transform="matrix(9.01794,0,0,9.01794,1834.89,-291.121)">
            <path id="path4217" d="M136.781,138.811C136.781,145.672 129.139,151.234 119.712,151.234C110.285,151.234 102.643,145.672 102.643,138.811C102.643,131.949 110.285,139.426 119.712,139.426C129.139,139.426 136.781,131.949 136.781,138.811Z" style="fill:rgb(244,162,111);fill-rule:nonzero;"/>
        </g>
        <g id="g4223" transform="matrix(9.01794,0,0,9.01794,1834.89,-291.121)">
            <path id="path4221" d="M136.781,139.858C136.781,145.708 129.139,150.449 119.712,150.449C110.285,150.449 102.643,145.708 102.643,139.858C102.643,134.009 110.285,140.383 119.712,140.383C129.139,140.383 136.781,134.009 136.781,139.858Z" style="fill:rgb(179,30,72);fill-rule:nonzero;"/>
        </g>
        <g id="g4227" transform="matrix(9.01794,0,0,9.01794,1834.89,-291.121)">
            <path id="path4225" d="M104.703,137.388C104.5,137.389 104.314,137.411 104.138,137.444C106.148,141.712 112.52,144.669 119.712,144.672C126.904,144.668 133.274,141.711 135.283,137.444C132.612,136.939 126.647,140.383 119.712,140.383C113.231,140.383 107.594,137.37 104.703,137.388Z" style="fill:rgb(245,246,232);fill-rule:nonzero;"/>
        </g>
        <g id="g4231" transform="matrix(9.01794,0,0,9.01794,1834.89,-291.121)">
            <path id="path4229" d="M119.712,146.538C116.202,146.544 112.787,147.253 109.984,148.559C112.744,149.75 116.096,150.45 119.712,150.45C123.328,150.45 126.678,149.75 129.438,148.56C126.636,147.254 123.222,146.544 119.712,146.538Z" style="fill:rgb(221,82,124);fill-rule:nonzero;"/>
        </g>
        <g id="g4235" transform="matrix(9.01794,0,0,9.01794,1834.89,-291.121)">
            <path id="path4233" d="M104.403,69.884L134.67,69.884C134.962,69.884 135.198,70.12 135.198,70.412C135.198,70.705 134.962,70.94 134.67,70.94L104.403,70.94C104.11,70.94 103.875,70.705 103.875,70.412C103.875,70.12 104.11,69.884 104.403,69.884Z" style="fill:rgb(239,148,126);fill-rule:nonzero;"/>
        </g>
        <g id="g4239" transform="matrix(9.01794,0,0,9.01794,1834.89,-291.121)">
            <path id="path4237" d="M107.922,72.876L131.15,72.876C131.443,72.876 131.678,73.111 131.678,73.404C131.678,73.696 131.443,73.932 131.15,73.932L107.922,73.932C107.63,73.932 107.394,73.696 107.394,73.404C107.394,73.111 107.63,72.876 107.922,72.876Z" style="fill:rgb(239,148,126);fill-rule:nonzero;"/>
        </g>
        <g id="g4243" transform="matrix(11.8748,0,0,11.8748,4751.23,-984.351)">
            <path id="path4241" d="M-180.201,132.262L-180.201,137.553L-162.058,137.553C-160.608,137.553 -159.44,136.398 -159.414,134.955L-159.411,134.955L-159.411,132.262L-180.201,132.262Z" style="fill:rgb(239,147,126);fill-rule:nonzero;"/>
        </g>
        <g id="g4247" transform="matrix(11.8748,0,0,11.8748,4751.23,-984.351)">
            <path id="path4245" d="M-166.204,140.294C-166.204,142.16 -167.739,143.695 -169.605,143.695C-171.472,143.695 -173.007,142.16 -173.007,140.294C-173.007,138.427 -171.472,136.892 -169.605,136.892C-167.739,136.892 -166.204,138.427 -166.204,140.294Z" style="fill:rgb(58,77,92);fill-rule:nonzero;"/>
        </g>
        <g id="g4251" transform="matrix(11.8748,0,0,11.8748,4751.23,-984.351)">
            <path id="path4249" d="M-176.982,129.915C-178.765,129.915 -180.201,131.14 -180.201,132.661C-180.201,132.671 -180.199,132.681 -180.199,132.691L-180.201,132.691L-180.201,135.407L-162.466,135.407C-160.683,135.407 -159.248,134.183 -159.248,132.661C-159.248,131.14 -160.683,129.915 -162.466,129.915L-176.982,129.915Z" style="fill:rgb(58,77,92);fill-rule:nonzero;"/>
        </g>
        <g id="g4255" transform="matrix(11.8748,0,0,11.8748,4751.23,-984.351)">
            <path id="path4253" d="M-165.402,140.427C-165.402,141.047 -165.912,141.557 -166.532,141.557C-167.152,141.557 -167.662,141.047 -167.662,140.427C-167.662,139.807 -167.152,139.297 -166.532,139.297C-165.912,139.297 -165.402,139.807 -165.402,140.427Z" style="fill:rgb(248,192,157);fill-rule:nonzero;"/>
        </g>
        <g id="g4259" transform="matrix(9.01794,0,0,9.01794,1834.89,-291.121)">
            <path id="path4257" d="M119.093,107.014L119.093,130.057C119.182,130.061 119.271,130.064 119.36,130.066C123.742,130.065 127.347,126.46 127.347,122.079C127.344,119.954 126.495,117.916 124.987,116.419L124.987,110.463C124.987,108.552 123.449,107.014 121.539,107.014L119.093,107.014Z" style="fill:rgb(241,163,145);fill-rule:nonzero;"/>
        </g>
        <g id="g4321" transform="matrix(9.01794,0,0,9.01794,1834.89,-291.121)">
            <path id="path4319" d="M117.297,8.476L121.776,8.476C149.054,8.476 171.014,30.436 171.014,57.714L171.014,89.445C171.014,116.723 149.054,138.684 121.776,138.684L117.297,138.684C90.019,138.684 68.058,116.723 68.058,89.445L68.058,57.714C68.058,30.436 90.019,8.476 117.297,8.476Z" style="fill:rgb(58,77,92);fill-rule:nonzero;"/>
        </g>
        <g id="g4325" transform="matrix(9.01794,0,0,9.01794,1834.89,-291.121)">
            <path id="path4323" d="M73.03,90.628L166.043,90.628C172.964,90.628 178.537,96.2 178.537,103.122C178.537,110.043 172.964,115.615 166.043,115.615L73.03,115.615C66.108,115.615 60.536,110.043 60.536,103.122C60.536,96.2 66.108,90.628 73.03,90.628Z" style="fill:rgb(245,193,156);fill-rule:nonzero;"/>
        </g>
        <g id="g4329" transform="matrix(9.01794,0,0,9.01794,1834.89,-291.121)">
            <path id="path4327" d="M119.536,11.462C145.563,11.462 166.516,32.415 166.516,58.442L166.516,88.717C166.516,114.744 145.563,135.697 119.536,135.697C93.509,135.697 72.557,114.744 72.557,88.717L72.557,58.442C72.557,32.415 93.509,11.462 119.536,11.462Z" style="fill:rgb(58,77,92);fill-rule:nonzero;"/>
        </g>
        <g id="g4341" transform="matrix(9.01794,0,0,9.01794,1833.31,-326.868)">
            <path id="path4339" d="M72.024,102.686L167.4,102.686C169.837,102.686 171.799,104.648 171.799,107.085C171.799,109.523 169.837,111.485 167.4,111.485L72.024,111.485C69.587,111.485 67.625,109.523 67.625,107.085C67.625,104.648 69.587,102.686 72.024,102.686Z" style="fill:rgb(248,118,117);fill-rule:nonzero;"/>
        </g>
        <g id="path4642" transform="matrix(1.84358,0,0,1.84358,-2457.23,-436.445)">
            <path d="M2625.44,571.252C2624.67,575.131 2624.26,579.141 2624.26,583.252C2624.26,617.106 2651.52,644.363 2685.38,644.363L3140.35,644.363C3174.2,644.363 3201.46,617.106 3201.46,583.252C3201.46,579.141 3201.05,575.131 3200.28,571.252C3194.74,599.32 3170.09,620.363 3140.35,620.363L2685.38,620.363C2655.63,620.363 2630.98,599.321 2625.44,571.252Z" style="fill:rgb(248,118,117);fill-rule:nonzero;"/>
        </g>
        <g id="g4345" transform="matrix(9.01794,0,0,9.01794,1834.89,-291.121)">
            <path id="path4343" d="M119.536,20.965C144.393,20.965 164.404,40.976 164.404,65.833L164.404,118.984C164.404,143.841 144.393,163.852 119.536,163.852C94.679,163.852 74.668,143.841 74.668,118.984L74.668,65.833C74.668,40.976 94.679,20.965 119.536,20.965Z" style="fill:rgb(245,193,156);fill-rule:nonzero;"/>
        </g>
        <g id="g4349" transform="matrix(9.01794,0,0,9.01794,1834.89,-291.121)">
            <path id="path4347" d="M119.536,90.708C133.475,90.708 144.696,101.93 144.696,115.868L144.696,145.672C144.696,159.611 133.475,170.832 119.536,170.832C105.598,170.832 94.377,159.611 94.377,145.672L94.377,115.868C94.377,101.93 105.598,90.708 119.536,90.708Z" style="fill:rgb(248,192,157);fill-rule:nonzero;"/>
        </g>
        <g id="g4353" transform="matrix(9.01794,0,0,9.01794,1834.89,-291.121)">
            <path id="path4351" d="M119.536,20.965C105.124,20.965 92.342,27.693 84.144,38.191C84.313,38.325 84.483,38.459 84.654,38.591C84.137,38.861 83.637,39.166 83.16,39.503C81.476,41.83 80.01,44.327 78.793,46.964C80.671,45.286 82.882,44.023 85.282,43.258C84.574,44.531 84.081,45.911 83.823,47.344C85.731,45.327 88.082,43.78 90.689,42.827C98.986,47.692 109.118,50.335 119.536,50.352C130.221,50.325 140.593,47.537 148.988,42.433C153.159,42.576 157.152,44.173 160.271,46.946C159.049,44.302 157.577,41.799 155.886,39.466C155.427,39.149 154.95,38.862 154.455,38.605C154.618,38.472 154.779,38.339 154.938,38.204C146.741,27.698 133.954,20.965 119.536,20.965Z" style="fill:rgb(248,118,117);fill-rule:nonzero;"/>
        </g>
        <g id="g4357" transform="matrix(9.01794,0,0,9.01794,1834.89,-291.121)">
            <path id="path4355" d="M119.536,18.501C104.974,18.501 92.078,25.371 83.892,36.058C92.95,43.9 105.925,48.399 119.536,48.416C133.148,48.402 146.124,43.905 155.186,36.063C146.999,25.373 134.101,18.501 119.536,18.501Z" style="fill:rgb(58,77,92);fill-rule:nonzero;"/>
        </g>
        <g id="g4361" transform="matrix(9.01794,0,0,9.01794,1834.89,-291.121)">
            <path id="path4359" d="M90.676,35.184C84.289,35.19 78.774,39.822 77.664,46.112C81.039,42.524 85.75,40.482 90.676,40.474C95.605,40.478 100.319,42.517 103.698,46.105C102.585,39.814 97.065,35.185 90.676,35.184Z" style="fill:rgb(58,77,92);fill-rule:nonzero;"/>
        </g>
        <g id="g4365" transform="matrix(9.01794,0,0,9.01794,1834.89,-291.121)">
            <path id="path4363" d="M148.404,35.184C154.791,35.19 160.306,39.822 161.416,46.112C158.041,42.524 153.33,40.482 148.404,40.474C143.475,40.478 138.761,42.517 135.382,46.105C136.496,39.814 142.015,35.185 148.404,35.184Z" style="fill:rgb(58,77,92);fill-rule:nonzero;"/>
        </g>
        <g id="g4369" transform="matrix(9.01794,0,0,9.01794,1834.89,-291.121)">
            <path id="path4367" d="M96.835,34.48C90.448,34.486 84.933,39.118 83.823,45.408C87.198,41.82 91.909,39.778 96.835,39.77C101.764,39.774 106.478,41.813 109.857,45.401C108.744,39.11 103.224,34.481 96.835,34.48Z" style="fill:rgb(58,77,92);fill-rule:nonzero;"/>
        </g>
        <g id="g4373" transform="matrix(9.01794,0,0,9.01794,1834.89,-291.121)">
            <path id="path4371" d="M104.403,69.884L134.67,69.884C134.962,69.884 135.198,70.12 135.198,70.412C135.198,70.705 134.962,70.94 134.67,70.94L104.403,70.94C104.11,70.94 103.875,70.705 103.875,70.412C103.875,70.12 104.11,69.884 104.403,69.884Z" style="fill:rgb(248,118,117);fill-rule:nonzero;"/>
        </g>
        <g id="g4377" transform="matrix(9.01794,0,0,9.01794,1834.89,-291.121)">
            <path id="path4375" d="M107.922,72.876L131.15,72.876C131.443,72.876 131.678,73.111 131.678,73.404C131.678,73.696 131.443,73.932 131.15,73.932L107.922,73.932C107.63,73.932 107.394,73.696 107.394,73.404C107.394,73.111 107.63,72.876 107.922,72.876Z" style="fill:rgb(248,118,117);fill-rule:nonzero;"/>
        </g>
        <g id="path4411" transform="matrix(1.84358,0,0,1.84358,-2457.23,-436.445)">
            <path d="M2871.12,676.893L2954.61,676.893C2954.52,683.617 2948.92,689.081 2942.2,688.997L2883.53,688.997C2883.47,688.997 2883.42,688.998 2883.37,688.998C2876.71,688.998 2871.2,683.559 2871.12,676.893Z" style="fill:rgb(248,118,117);fill-rule:nonzero;"/>
        </g>
        <g id="path4413" transform="matrix(1.84358,0,0,1.84358,-2457.23,-436.445)">
            <path d="M2871.12,676.893L2897.75,577.734L2912.76,577.734L2912.76,676.822L2871.12,676.893Z" style="fill:rgb(250,209,183);fill-rule:nonzero;"/>
        </g>
        <g id="g4540" transform="matrix(2.39837,0,0,2.39837,1598.51,-434.018)">
            <path id="path4530" d="M472.819,558.307L623.214,558.307L623.214,586.021C623.214,627.552 589.547,661.219 548.017,661.219C506.486,661.219 472.819,627.552 472.819,586.021L472.819,558.307Z" style="fill:rgb(176,17,57);fill-rule:nonzero;"/>
            <path id="rect4532" d="M523.689,575.207L578.261,575.207C591.245,575.207 601.699,585.66 601.699,598.645C601.699,611.63 591.245,622.083 578.261,622.083L523.689,622.083C510.704,622.083 500.251,611.63 500.251,598.645C500.251,585.66 510.704,575.207 523.689,575.207Z" style="fill:rgb(104,0,24);fill-rule:nonzero;"/>
            <path id="path4534" d="M548.018,600.307C523.249,600.307 501.281,612.285 487.58,630.762C501.281,649.239 523.248,661.219 548.018,661.219C572.787,661.219 594.752,649.239 608.453,630.762C594.752,612.285 572.786,600.307 548.018,600.307Z" style="fill:rgb(238,39,97);fill-rule:nonzero;"/>
            <path id="path4536" d="M479.575,558.307L479.575,576.74C479.575,581.004 483.008,584.436 487.271,584.436L608.762,584.436C613.026,584.436 616.458,581.004 616.458,576.74L616.458,558.307L479.575,558.307Z" style="fill:white;fill-rule:nonzero;"/>
            <path id="rect4538" d="M531.149,611.033L561.234,611.033C564.334,611.033 566.831,613.53 566.831,616.631C566.831,619.731 564.334,622.228 561.234,622.228L531.149,622.228C528.048,622.228 525.552,619.731 525.552,616.631C525.552,613.53 528.048,611.033 531.149,611.033Z" style="fill:rgb(239,77,120);fill-rule:nonzero;"/>
        </g>
        <g id="g4679" transform="matrix(1.84358,0,0,1.84358,-2456.37,-436.445)">
            <g id="g4657">
                <path id="rect4417" d="M2819.4,582.991C2829.04,582.991 2836.79,590.749 2836.79,600.386L2836.79,623.579C2836.79,633.215 2829.04,640.973 2819.4,640.973C2809.76,640.973 2802,633.215 2802,623.579L2802,600.386C2802,590.749 2809.76,582.991 2819.4,582.991Z" style="fill:rgb(58,77,92);fill-rule:nonzero;"/>
                <path id="rect4419" d="M2781.93,533.181L2856.87,533.181C2866.73,533.181 2874.67,541.12 2874.67,550.98C2874.67,560.841 2866.73,568.779 2856.87,568.779L2781.93,568.779C2772.07,568.779 2764.13,560.841 2764.13,550.98C2764.13,541.12 2772.07,533.181 2781.93,533.181Z" style="fill:rgb(248,118,117);fill-rule:nonzero;"/>
                <path id="rect4421" d="M2781.93,518.427L2856.87,518.427C2866.73,518.427 2874.67,526.365 2874.67,536.226C2874.67,546.086 2866.73,554.025 2856.87,554.025L2781.93,554.025C2772.07,554.025 2764.13,546.086 2764.13,536.226C2764.13,526.365 2772.07,518.427 2781.93,518.427Z" style="fill:rgb(58,77,92);fill-rule:nonzero;"/>
                <path id="rect4640" d="M2783.54,526.046L2817.16,526.046C2821.58,526.046 2825.14,529.607 2825.14,534.031C2825.14,538.454 2821.58,542.015 2817.16,542.015L2783.54,542.015C2779.12,542.015 2775.56,538.454 2775.56,534.031C2775.56,529.607 2779.12,526.046 2783.54,526.046Z" style="fill:rgb(68,89,108);fill-rule:nonzero;"/>
            </g>
            <g id="g4667" transform="matrix(-1,0,0,1,5824.8,0)">
                <path id="rect4659" d="M2819.4,582.991C2829.04,582.991 2836.79,590.749 2836.79,600.386L2836.79,623.579C2836.79,633.215 2829.04,640.973 2819.4,640.973C2809.76,640.973 2802,633.215 2802,623.579L2802,600.386C2802,590.749 2809.76,582.991 2819.4,582.991Z" style="fill:rgb(58,77,92);fill-rule:nonzero;"/>
                <path id="rect4661" d="M2781.93,533.181L2856.87,533.181C2866.73,533.181 2874.67,541.12 2874.67,550.98C2874.67,560.841 2866.73,568.779 2856.87,568.779L2781.93,568.779C2772.07,568.779 2764.13,560.841 2764.13,550.98C2764.13,541.12 2772.07,533.181 2781.93,533.181Z" style="fill:rgb(248,118,117);fill-rule:nonzero;"/>
                <path id="rect4663" d="M2781.93,518.427L2856.87,518.427C2866.73,518.427 2874.67,526.365 2874.67,536.226C2874.67,546.086 2866.73,554.025 2856.87,554.025L2781.93,554.025C2772.07,554.025 2764.13,546.086 2764.13,536.226C2764.13,526.365 2772.07,518.427 2781.93,518.427Z" style="fill:rgb(58,77,92);fill-rule:nonzero;"/>
                <path id="rect4665" d="M2783.54,526.046L2817.16,526.046C2821.58,526.046 2825.14,529.607 2825.14,534.031C2825.14,538.454 2821.58,542.015 2817.16,542.015L2783.54,542.015C2779.12,542.015 2775.56,538.454 2775.56,534.031C2775.56,529.607 2779.12,526.046 2783.54,526.046Z" style="fill:rgb(68,89,108);fill-rule:nonzero;"/>
            </g>
        </g>
    </g>
</svg>
